<svg width="30" height="30" viewBox="0 0 30 30" fill="none" xmlns="http://www.w3.org/2000/svg">
<path d="M7 22.9856H8V21.9856H7V22.9856ZM7 28.9817H6C6 29.3604 6.21394 29.7066 6.55265 29.876C6.89135 30.0455 7.29671 30.009 7.59975 29.7819L7 28.9817ZM15 22.9856V21.9856H14.6668L14.4003 22.1854L15 22.9856ZM9 7.99475H8V9.99475H9V7.99475ZM21 9.99475H22V7.99475H21V9.99475ZM9 13.9908H8V15.9908H9V13.9908ZM17 15.9908H18V13.9908H17V15.9908ZM6 22.9856V28.9817H8V22.9856H6ZM7.59975 29.7819L15.5997 23.7858L14.4003 22.1854L6.40025 28.1815L7.59975 29.7819ZM15 23.9856H27V21.9856H15V23.9856ZM27 23.9856C28.6576 23.9856 30 22.6451 30 20.9869H28C28 21.5393 27.5544 21.9856 27 21.9856V23.9856ZM30 20.9869V2.99866H28V20.9869H30ZM30 2.99866C30 1.34045 28.6576 0 27 0V2C27.5544 2 28 2.4463 28 2.99866H30ZM27 0H3V2H27V0ZM3 0C1.34236 0 0 1.34045 0 2.99866H2C2 2.4463 2.44564 2 3 2V0ZM0 2.99866V20.9869H2V2.99866H0ZM0 20.9869C0 22.6451 1.34236 23.9856 3 23.9856V21.9856C2.44564 21.9856 2 21.5393 2 20.9869H0ZM3 23.9856H7V21.9856H3V23.9856ZM9 9.99475H21V7.99475H9V9.99475ZM9 15.9908H17V13.9908H9V15.9908Z" fill="#1F3D73"/>
</svg>
