<svg width="250" height="79" viewBox="0 0 250 79" fill="none" xmlns="http://www.w3.org/2000/svg">
<path d="M53.8424 22.6872H48.0923L61.2131 51.5948C58.0767 55.4108 55.8289 58.5996 54.4175 61.1087C53.006 63.6179 52.2742 65.8657 52.2742 67.9567C52.2742 68.6885 52.5879 69.0022 53.1629 69.0022C53.2151 69.0022 53.4765 68.8976 53.8947 68.7408C54.3129 68.584 54.8879 68.4271 55.5152 68.2703C56.1425 68.1135 56.6652 68.009 57.1357 68.009C58.5471 68.009 59.7494 68.4794 60.6904 69.3681C61.6313 70.2567 62.154 71.5113 62.154 73.1318C62.154 74.6478 61.6836 75.9024 60.6904 76.8956C59.7494 77.8365 58.4426 78.3593 56.8743 78.3593C55.0447 78.3593 53.6333 77.732 52.5356 76.5297C51.4378 75.2751 50.9151 73.6546 50.9151 71.6159C50.9151 67.9044 52.3788 63.6702 55.2538 58.9655L38.3693 22.6872H34.0828V22.4258H53.7902V22.6872H53.8424ZM61.3177 51.7516L61.2131 51.5948L64.6632 47.2561L61.3177 51.7516ZM68.6883 19.7075C70.5702 19.7075 72.0339 20.3348 73.0794 21.5894C74.1249 22.844 74.6999 24.569 74.6999 26.66C74.6999 29.6919 73.8635 32.7761 72.243 35.9648C70.6225 39.1536 68.061 42.9173 64.6632 47.2038C67.6951 43.0741 69.8906 39.7808 71.2498 37.2194C72.6089 34.658 73.2885 32.3056 73.2885 30.2146C73.2885 29.4305 72.9748 29.0646 72.3998 29.0646C72.3475 29.0646 72.0862 29.1692 71.668 29.3783C71.2498 29.5874 70.6748 29.7965 70.0475 30.0056C69.4202 30.2146 68.8451 30.3192 68.3747 30.3192C67.0156 30.3192 65.8132 29.8487 64.82 28.8555C63.8268 27.9146 63.3041 26.6077 63.3041 25.0395C63.3041 23.5235 63.8268 22.2167 64.82 21.2235C65.8132 20.2303 67.1201 19.7075 68.6883 19.7075Z" fill="white"/>
<path d="M96.7072 22.6872H90.957L104.078 51.5948C100.941 55.4108 98.6936 58.5996 97.2822 61.1087C95.8708 63.6179 95.1389 65.8657 95.1389 67.9567C95.1389 68.6885 95.4526 69.0022 96.0276 69.0022C96.0799 69.0022 96.3412 68.8976 96.7594 68.7408C97.1776 68.584 97.7526 68.4271 98.3799 68.2703C99.0072 68.1135 99.53 68.009 100 68.009C101.412 68.009 102.614 68.4794 103.555 69.3681C104.496 70.2567 105.019 71.5113 105.019 73.1318C105.019 74.6478 104.548 75.9024 103.555 76.8956C102.614 77.8365 101.307 78.3593 99.7391 78.3593C97.9095 78.3593 96.4981 77.732 95.4003 76.5297C94.3025 75.2751 93.7798 73.6546 93.7798 71.6159C93.7798 67.9044 95.2435 63.6702 98.1186 58.9655L81.2863 22.7394H76.9998V22.4781H96.7072V22.6872ZM104.182 51.7516L104.078 51.5948L107.528 47.2561L104.182 51.7516ZM111.605 19.7075C113.487 19.7075 114.951 20.3348 115.996 21.5894C117.042 22.844 117.617 24.569 117.617 26.66C117.617 29.6919 116.78 32.7761 115.16 35.9648C113.539 39.1536 110.978 42.9173 107.58 47.2038C110.612 43.0741 112.808 39.7808 114.167 37.2194C115.526 34.658 116.205 32.3056 116.205 30.2146C116.205 29.4305 115.892 29.0646 115.317 29.0646C115.265 29.0646 115.003 29.1692 114.585 29.3783C114.167 29.5874 113.592 29.7965 112.964 30.0056C112.337 30.2146 111.762 30.3192 111.292 30.3192C109.933 30.3192 108.73 29.8487 107.737 28.8555C106.744 27.9146 106.221 26.6077 106.221 25.0395C106.221 23.5235 106.744 22.2167 107.737 21.2235C108.678 20.2303 109.985 19.7075 111.605 19.7075Z" fill="white"/>
<path d="M160.639 57.2403H160.9C160.796 59.3835 160.012 61.1608 158.653 62.6768C157.241 64.1405 155.359 64.8723 153.007 64.8723C148.25 64.8723 145.479 62.154 144.8 56.6652C141.977 62.2063 137.638 64.9769 131.836 64.9769C128.647 64.9769 126.033 64.0359 123.89 62.2063C121.799 60.3767 120.754 57.9721 120.754 54.9402C120.754 49.8696 123.681 46.3672 129.483 44.4853C129.797 44.3808 130.581 44.1194 131.836 43.7535C133.09 43.3876 133.927 43.1262 134.345 42.9694C134.763 42.8126 135.547 42.5512 136.697 42.133C137.795 41.7148 138.631 41.3489 139.102 41.0352C139.572 40.7216 140.2 40.3034 141.088 39.7806C141.925 39.2579 142.552 38.7352 142.918 38.1601C143.284 37.5851 143.702 36.9056 144.173 36.1737C144.643 35.4419 144.957 34.6055 145.166 33.7168C145.375 32.8282 145.427 31.835 145.427 30.7895C145.427 24.8825 142.029 21.9028 135.234 21.9028C132.202 21.9028 129.64 22.687 127.445 24.3075C125.354 25.8757 124.308 27.2871 124.308 28.4371C124.308 28.7508 124.465 28.9076 124.779 28.9076L125.824 28.4894C126.556 28.228 127.183 28.0712 127.706 28.0712C129.065 28.0712 130.215 28.5417 131.209 29.4303C132.149 30.319 132.672 31.5213 132.672 32.9327C132.672 34.2918 132.202 35.4419 131.209 36.3828C130.215 37.3238 129.013 37.7942 127.497 37.7942C126.086 37.7942 124.883 37.2715 123.942 36.2783C123.001 35.2851 122.479 33.9782 122.479 32.4622C122.479 29.5349 123.786 26.9734 126.399 24.7257C128.961 22.5301 132.62 21.4324 137.429 21.4324C142.5 21.4324 146.473 22.7915 149.348 25.562C152.17 28.2803 153.634 32.1486 153.634 37.0624V57.188C153.634 59.9585 154.732 61.3699 156.98 61.3699C158.025 61.3699 158.862 61.004 159.541 60.2199C160.116 59.4358 160.534 58.4426 160.639 57.2403ZM144.591 54.0515V36.4874C143.179 38.892 140.147 41.3489 135.547 43.8058C133.927 44.6944 132.515 46.0536 131.418 47.8832C130.32 49.7128 129.797 51.8037 129.797 54.1561C129.797 56.5607 130.424 58.4948 131.731 59.9062C133.038 61.3176 134.711 62.0495 136.854 62.0495C139.154 62.0495 141.036 61.3176 142.447 59.8017C143.911 58.2857 144.591 56.3516 144.591 54.0515Z" fill="white"/>
<path d="M39.8853 57.2403H40.1466C40.0421 59.3835 39.258 61.1608 37.8988 62.6768C36.4874 64.1405 34.6056 64.8723 32.2532 64.8723C27.4963 64.8723 24.7257 62.154 24.0462 56.6652C21.2234 62.2063 16.8846 64.9769 11.0821 64.9769C7.89341 64.9769 5.2797 64.0359 3.13646 62.2063C1.04549 60.3767 0 57.9721 0 54.9402C0 49.8696 2.92736 46.3672 8.7298 44.4853C9.04345 44.3808 9.82756 44.1194 11.0821 43.7535C12.3367 43.3876 13.1731 43.1262 13.5913 42.9694C14.0095 42.8126 14.7936 42.5512 15.9437 42.133C17.0414 41.7148 17.8778 41.3489 18.3483 41.0352C18.8187 40.7216 19.446 40.3034 20.3347 39.7806C21.1711 39.2579 21.7984 38.7352 22.1643 38.1601C22.5302 37.5851 22.9484 36.9056 23.4189 36.1737C23.8893 35.4419 24.203 34.6055 24.4121 33.7168C24.6212 32.8282 24.6735 31.835 24.6735 30.7895C24.6735 24.8825 21.2756 21.9028 14.48 21.9028C11.4481 21.9028 8.88662 22.687 6.69111 24.3075C4.60013 25.8757 3.55465 27.2871 3.55465 28.4371C3.55465 28.7508 3.71147 28.9076 4.02512 28.9076L5.0706 28.4894C5.80244 28.228 6.42973 28.0712 6.95248 28.0712C8.31161 28.0712 9.46164 28.5417 10.4549 29.4303C11.3958 30.319 11.9185 31.5213 11.9185 32.9327C11.9185 34.2918 11.4481 35.4419 10.4549 36.3828C9.46164 37.3238 8.25933 37.7942 6.74338 37.7942C5.33197 37.7942 4.12967 37.2715 3.18873 36.2783C2.24779 35.2851 1.72505 33.9782 1.72505 32.4622C1.72505 29.5349 3.03191 26.9734 5.64562 24.7257C8.20706 22.5301 11.8663 21.4324 16.6755 21.4324C21.7461 21.4324 25.7189 22.7915 28.594 25.562C31.4168 28.2803 32.8805 32.1486 32.8805 37.0624V57.188C32.8805 59.9585 33.9783 61.3699 36.2261 61.3699C37.2715 61.3699 38.1079 61.004 38.7875 60.2199C39.3625 59.4358 39.7807 58.4426 39.8853 57.2403ZM23.8371 54.0515V36.4874C22.4257 38.892 19.3938 41.3489 14.7936 43.8058C13.1731 44.6944 11.7617 46.0536 10.6639 47.8832C9.56619 49.7128 9.04345 51.8037 9.04345 54.1561C9.04345 56.5607 9.67074 58.4948 10.9776 59.9062C12.2845 61.3176 13.9572 62.0495 16.1005 62.0495C18.4005 62.0495 20.2824 61.3176 21.6938 59.8017C23.1575 58.2857 23.8371 56.3516 23.8371 54.0515Z" fill="white"/>
<path d="M161.371 22.4257H175.433V29.7964C176.217 27.81 177.576 25.9804 179.615 24.3076C181.653 22.478 184.424 21.5894 187.926 21.5894C193.781 21.5894 197.388 24.6735 198.695 30.8942C199.531 28.5418 200.942 26.3986 203.033 24.4644C205.124 22.5303 207.947 21.5894 211.502 21.5894C218.925 21.5894 222.689 26.7122 222.689 36.958V57.0836C222.689 59.9064 223.786 61.3701 226.034 61.3701C226.975 61.3701 227.759 61.0041 228.439 60.22C229.118 59.4359 229.484 58.4427 229.589 57.2404H229.85C229.746 59.3314 228.961 61.1087 227.55 62.6247C226.139 64.1406 224.205 64.8724 221.695 64.8724C219.186 64.8724 217.252 63.9838 215.841 62.2587C214.377 60.4814 213.645 58.0768 213.645 54.9403V31.2078C213.645 28.8032 213.07 26.9213 211.92 25.5622C210.77 24.2031 209.202 23.5235 207.215 23.5235C204.811 23.5235 202.824 24.5167 201.308 26.4509C199.792 28.385 199.008 30.8419 199.008 33.8215V63.827H203.713V64.0883H185.469V63.827H189.965V31.2078C189.965 28.7509 189.39 26.8691 188.292 25.5622C187.194 24.2553 185.626 23.5758 183.64 23.5758C181.235 23.5758 179.249 24.569 177.733 26.5031C176.217 28.4373 175.433 30.8942 175.433 33.8738V63.8792H180.033V64.1406H161.371V63.8792H166.389V22.6871H161.371V22.4257Z" fill="white"/>
<path d="M244.644 22.4258V63.827H249.557V64.0884H230.477V63.827H235.548V22.6872H230.477V22.4258H244.644Z" fill="#D88DBC"/>
<path d="M240.409 17.2505C236.384 17.3028 233.77 13.0163 235.652 9.46164L240.566 0L245.114 9.61847C246.787 13.1731 244.278 17.1982 240.409 17.2505Z" fill="#D88DBC"/>
</svg>
