<svg width="42" height="44" viewBox="0 0 42 44" fill="none" xmlns="http://www.w3.org/2000/svg">
<g clip-path="url(#clip0_1_250)">
<path d="M38.8643 34.1451C38.4479 34.1451 38.1703 34.2839 37.8927 34.2839C37.8927 29.9811 37.8927 25.6782 37.8927 21.3754C38.1703 21.3754 38.5867 21.3754 39.0031 21.5142C39.0031 20.5426 39.0031 19.571 39.0031 18.5994C38.8643 15.6845 37.8927 12.9085 36.5047 10.4101C36.3659 10.1325 36.0883 9.99369 35.6719 9.99369C34.8391 10.1325 34.1451 9.85489 33.5899 9.16088C30.3974 5.82965 26.511 4.02524 21.9306 3.74763C16.7949 3.47003 12.3533 5.13565 8.60565 8.74448C7.77284 9.43849 6.94003 10.1325 5.69082 9.85489C5.55202 9.85489 5.41322 9.99369 5.27442 10.1325C3.8864 12.3533 3.0536 14.7129 2.77599 17.3502C2.63719 18.7382 2.63719 19.9874 2.63719 21.3754C3.0536 21.3754 3.47 21.2366 3.8864 21.2366C3.8864 25.5394 3.8864 29.8423 3.8864 34.1451C2.08199 34.1451 0.27757 32.6183 0.138769 30.8139C-3.23467e-05 28.7319 -3.23467e-05 26.6498 0.138769 24.5678C0.138769 23.8738 0.555173 23.1798 0.971577 22.6246C1.24918 22.2082 1.38798 21.9306 1.38798 21.5142C1.38798 19.2934 1.38798 17.0726 1.94319 14.8517C3.6088 7.35646 9.85486 1.52681 17.6277 0.277601C28.0378 -1.38801 37.8927 5.27445 40.1135 15.5457C40.5299 17.6278 40.5299 19.7098 40.5299 21.7918C40.5299 22.0694 40.6687 22.4858 40.8075 22.7634C41.2239 23.4574 41.6403 24.1514 41.6403 24.9842C41.6403 26.7886 41.6403 28.7319 41.6403 30.5363C41.6403 31.6467 41.2239 32.6183 40.2523 33.3123C39.9747 33.5899 39.8359 33.8675 39.8359 34.2839C39.8359 35.6719 39.8359 36.9211 39.4195 38.3091C38.4479 41.224 35.5331 43.1672 32.4795 43.1672C30.8138 43.1672 29.1482 43.1672 27.3438 43.1672C27.0662 43.1672 26.7886 43.1672 26.6498 43.5836C26.511 43.8612 26.0946 44 25.817 44C24.1514 44 22.6246 44 20.959 44C20.265 44 19.9874 43.7224 19.9874 43.0284C19.9874 42.7508 19.9874 42.4732 19.9874 42.3344C19.9874 41.7792 20.4038 41.5016 20.959 41.5016C22.6246 41.5016 24.2902 41.5016 25.9558 41.5016C26.2334 41.5016 26.6498 41.7792 26.7886 41.918C26.9274 42.1956 27.0662 42.1956 27.3438 42.1956C29.1482 42.1956 31.0915 42.1956 32.8959 42.1956C35.8107 42.0568 38.5867 39.4196 38.7255 36.3659C38.8643 35.5331 38.8643 34.8391 38.8643 34.1451Z" fill="#1F3D73"/>
<path d="M4.71924 27.4826C4.71924 24.9842 4.71924 22.347 4.71924 19.8486C4.71924 19.0158 4.99684 18.877 5.69085 18.877C6.94006 18.877 8.18927 18.877 9.57728 18.877C10.2713 18.877 10.5489 19.1546 10.5489 19.8486C10.5489 20.959 10.5489 22.0694 10.5489 23.3186C10.5489 25.2618 10.5489 27.0662 10.5489 29.0094C10.5489 31.0915 10.5489 33.0347 10.5489 35.1167C10.5489 35.9495 10.4101 36.0883 9.57728 36.0883C8.32807 36.0883 7.07886 36.0883 5.82965 36.0883C4.99684 36.0883 4.71924 35.9495 4.71924 35.1167C4.71924 32.6183 4.71924 29.9811 4.71924 27.4826Z" fill="#1F3D73"/>
<path d="M36.7823 27.4826C36.7823 29.9811 36.7823 32.4795 36.7823 34.9779C36.7823 35.9495 36.6435 36.0883 35.6719 36.0883C34.4227 36.0883 33.1735 36.0883 31.9242 36.0883C31.2302 36.0883 30.9526 35.9495 30.9526 35.2555C30.9526 30.1199 30.9526 24.9842 30.9526 19.8486C30.9526 19.1546 31.2302 18.877 31.7854 18.877C33.1735 18.877 34.4227 18.877 35.8107 18.877C36.5047 18.877 36.6435 19.0158 36.6435 19.7098C36.7823 22.347 36.7823 24.9842 36.7823 27.4826Z" fill="#1F3D73"/>
</g>
<defs>
<clipPath id="clip0_1_250">
<rect width="41.6404" height="44" fill="white"/>
</clipPath>
</defs>
</svg>
