<svg width="49" height="34" viewBox="0 0 49 34" fill="none" xmlns="http://www.w3.org/2000/svg">
<path d="M17.5944 0C19.4774 0.427949 20.4617 1.28385 20.5045 2.86726C20.5473 5.52054 20.5473 8.13102 20.5045 10.7843C20.5045 11.1267 20.2905 11.4262 20.2049 11.7258C18.2364 12.4105 17.5088 12.0254 17.466 10.228C17.3805 8.25941 17.466 6.29084 17.466 3.85154C12.5018 8.47338 7.9228 12.8385 3.21536 17.3319C7.88 21.7826 12.4591 26.1049 17.2521 30.6411C17.68 27.6027 17.0381 24.9066 17.9796 22.0394C18.7927 22.1249 19.5202 22.1677 20.4189 22.2533C20.4189 25.5913 20.5901 28.6726 20.3761 31.6682C20.2049 33.9363 17.3805 34.7494 15.5403 33.2088C13.9569 31.8822 12.5018 30.3844 11.004 28.9721C7.8372 25.9765 4.67039 23.0236 1.50357 20.028C-0.464997 18.145 -0.507792 16.6044 1.41798 14.7642C6.08262 10.3136 10.7473 5.90569 15.4119 1.49782C16.0966 0.898692 16.9097 0.470744 17.5944 0Z" fill="#1F3D73"/>
<path d="M18.2792 18.3162C17.9796 17.931 17.6801 17.4603 17.2949 16.9895C17.6373 16.476 17.9368 16.0052 18.2364 15.5345C27.9936 15.5345 37.6653 15.5345 47.3369 15.5345C48.4068 16.476 48.4496 17.3319 47.3369 18.3589C37.8365 18.3162 28.2504 18.3162 18.2792 18.3162Z" fill="#1F3D73"/>
</svg>
