<svg width="28" height="33" viewBox="0 0 28 33" fill="none" xmlns="http://www.w3.org/2000/svg">
<path d="M22.7211 7.62555C23.8937 9.20847 24.3041 11.0552 24.3627 12.9899C24.392 13.7814 24.4213 14.5435 24.3627 15.335C24.0989 18.5008 24.4213 21.4615 26.9716 23.7479C27.294 24.041 27.4406 24.8618 27.2647 25.3015C27.1475 25.6239 26.4146 25.9171 25.9456 25.9464C18.7638 25.9757 11.6114 25.9757 4.34167 25.9757C4.60549 24.8032 5.45558 24.8618 6.24704 24.8618C12.4028 24.8618 18.5586 24.8618 24.6851 24.8618C25.1541 24.8618 25.6232 24.8618 26.4439 24.8618C25.7697 24.0117 25.33 23.3375 24.7731 22.7512C23.5712 21.4615 23.1022 19.9665 23.1902 18.2077C23.2781 16.5954 23.3367 14.9832 23.1608 13.371C22.985 11.8467 22.4866 10.381 22.1642 8.85671C22.0762 8.41701 22.1642 7.97731 22.1642 7.5083C22.3694 7.56693 22.5453 7.59624 22.7211 7.62555Z" fill="#1F3D73" stroke="#1F3D73"/>
<path d="M1 26.445C1.29313 26.0346 1.55695 25.5949 1.90871 25.2432C9.5595 17.5924 17.2103 9.91228 24.8904 2.29081C25.1835 1.99767 25.6818 1.93905 26.0629 1.79248C25.9457 2.23218 25.9163 2.81845 25.6232 3.08227C17.9431 10.8503 10.2044 18.5597 2.46567 26.2691C2.17253 26.5623 1.67421 26.6502 1.29313 26.8554C1.20519 26.7088 1.08794 26.5916 1 26.445Z" fill="#1F3D73" stroke="#1F3D73"/>
<path d="M20.4347 5.69105C20.1123 5.77899 19.7312 6.0135 19.4674 5.92556C18.5 5.60311 17.5327 5.28067 16.6533 4.75303C16.3308 4.54783 16.3015 3.87363 16.067 3.43393C15.8032 2.96491 15.4221 2.52521 15.0704 2.08551C14.7186 2.52521 14.0444 2.96491 14.0737 3.40461C14.103 4.48921 13.5754 4.78234 12.696 5.07547C9.11976 6.18938 6.92126 9.20865 6.89194 12.9901C6.89194 14.7489 6.95057 16.5077 6.86263 18.2665C6.83332 18.8527 6.48156 19.4097 6.27636 19.996C6.07117 19.9667 5.83666 19.908 5.63147 19.8787C5.77804 16.7129 5.66078 13.4884 6.18842 10.4105C6.71606 7.42054 8.82662 5.33929 11.7286 4.2547C12.4615 3.99088 12.9305 3.72706 13.0184 2.78903C13.1064 1.64581 13.8978 0.971605 15.129 1.00092C16.3308 1.03023 16.9171 1.73375 17.2102 2.87697C17.3275 3.3753 17.8258 3.84431 18.2655 4.13745C18.9397 4.57715 19.7019 4.87028 20.4347 5.25135C20.4347 5.36861 20.4347 5.51517 20.4347 5.69105Z" fill="#1F3D73" stroke="#1F3D73"/>
<path d="M15.0118 31.7801C12.7546 31.7508 10.6734 29.9041 10.5268 27.7642C10.4975 27.4418 10.7906 27.1193 10.9079 26.7969C11.1424 27.0314 11.4942 27.2366 11.5821 27.5004C12.2563 29.7282 13.2237 30.6369 15.0411 30.6662C16.8292 30.6662 17.8845 29.7282 18.5587 27.5883C18.6466 27.2952 18.9691 27.0607 19.2036 26.7969C19.3501 27.1193 19.614 27.4418 19.5847 27.7642C19.526 29.9627 17.3861 31.8095 15.0118 31.7801Z" fill="#1F3D73" stroke="#1F3D73"/>
</svg>
