<svg width="28" height="35" viewBox="0 0 28 35" fill="none" xmlns="http://www.w3.org/2000/svg">
<path d="M14.2452 27.8033C10.4123 27.8033 6.61089 27.8347 2.77803 27.7719C2.18111 27.7719 1.30144 27.4891 1.08152 27.0493C0.861599 26.6095 1.11293 25.667 1.52135 25.29C3.94045 22.9337 4.63162 20.1062 4.28604 16.8702C4.16037 15.6764 4.2232 14.4511 4.31745 13.2573C4.56879 9.11026 6.67372 6.21991 10.4437 4.55482C11.2606 4.17782 11.9518 3.98932 12.0146 2.79547C12.046 1.7273 12.9257 1.06755 14.0567 1.00471C15.2505 0.941879 16.193 1.50738 16.3501 2.70122C16.4758 3.86365 17.1355 4.17782 18.0466 4.58624C21.9423 6.34558 23.9844 9.39302 24.1415 13.6657C24.2043 15.3308 24.2672 17.0273 24.1415 18.6924C23.953 20.8916 24.6128 22.6509 26.0579 24.2532C26.7177 24.9758 27.5031 26.2325 27.3146 26.9865C26.9376 28.4316 25.3668 27.7719 24.2986 27.7719C20.937 27.8661 17.6068 27.8033 14.2452 27.8033ZM26.3407 26.5466C25.7438 25.7298 25.3668 25.1643 24.9269 24.693C23.3875 23.0908 22.7592 21.2058 22.9162 18.9752C23.0419 17.2158 22.9477 15.4251 22.9477 13.6343C22.8848 9.77002 20.5286 6.59692 16.8214 5.40307C15.816 5.08891 15.1877 4.77474 15.2191 3.51806C15.2505 3.10964 14.4965 2.63839 14.0881 2.19855C13.7425 2.63839 13.1456 3.10964 13.1456 3.54948C13.177 4.68049 12.6743 5.08891 11.7004 5.37166C8.05606 6.47125 5.73121 9.3616 5.47988 13.163C5.38563 14.5768 5.29138 15.9906 5.44846 17.4043C5.82546 20.7031 4.97721 23.4992 2.58953 25.7926C2.43244 25.9497 2.30677 26.201 2.08686 26.5466C10.1924 26.5466 18.0466 26.5466 26.3407 26.5466Z" fill="#1F3D73" stroke="#1F3D73"/>
<path d="M10.0353 28.5566C10.2238 28.9651 10.4437 29.3735 10.5694 29.8133C11.1035 31.7612 12.3916 32.8293 14.2452 32.7979C16.0988 32.7665 17.3869 31.6669 17.8895 29.7505C17.9838 29.3421 18.3922 29.0279 18.6435 28.6509C18.7692 29.0907 19.0834 29.5934 19.0205 30.0018C18.675 32.1696 16.7271 33.8661 14.5908 33.9918C12.2659 34.1174 10.161 32.7351 9.53265 30.5987C9.37557 30.0018 9.4384 29.3421 9.40698 28.6823C9.59548 28.6509 9.8154 28.6195 10.0353 28.5566Z" fill="#1F3D73" stroke="#1F3D73"/>
</svg>
