<svg width="35" height="32" viewBox="0 0 35 32" fill="none" xmlns="http://www.w3.org/2000/svg">
<path d="M0 22.5362C0 15.5087 0 8.47204 0 1.4445C0.14546 1.3354 0.300011 1.12631 0.445472 1.12631C1.36369 1.12631 2.28191 1.12631 3.19103 1.21722C3.75469 1.27177 4.30926 1.48086 4.90019 1.62632C4.90019 1.28086 4.90019 0.980846 4.90019 0.671743C4.90928 0.208089 5.10019 0.00808112 5.56385 0.00808112C6.51843 0.00808112 7.47301 -0.0101014 8.4185 0.00808112C11.4913 0.0717199 14.1369 1.17176 16.3461 3.30821C16.7279 3.67186 17.0643 4.08096 17.437 4.48098C17.5461 4.34461 17.6461 4.22642 17.7461 4.10824C19.6371 1.91724 22.0099 0.526283 24.8919 0.171724C26.3646 -0.0101014 27.8738 0.0535374 29.3738 0.0262636C29.7284 0.0171724 29.9284 0.244454 29.9375 0.608104C29.9466 0.935389 29.9375 1.26267 29.9375 1.61723C30.0648 1.59905 30.1648 1.58996 30.2557 1.56269C31.4557 1.17176 32.6831 1.03539 33.9377 1.11721C33.974 1.11721 34.0013 1.11721 34.0377 1.11721C34.6831 1.11721 34.8286 1.27177 34.8286 1.92634C34.8286 8.63568 34.8286 15.3541 34.8286 22.0635C34.8286 22.6908 34.7468 22.809 34.1377 22.9544C32.183 23.4362 30.2284 23.9272 28.2738 24.409C28.1738 24.4363 28.0829 24.4727 27.8829 24.5272C28.1102 24.5908 28.2283 24.6272 28.3465 24.6545C29.6102 24.9727 30.8739 25.2909 32.1376 25.6C32.4376 25.6727 32.6467 25.8273 32.6467 26.1454C32.6558 27.7819 32.6558 29.4092 32.6467 31.0456C32.6467 31.4366 32.3285 31.6547 31.9467 31.5729C31.8376 31.5547 31.7285 31.5184 31.6194 31.4911C27.5101 30.4638 23.41 29.4365 19.3007 28.4183C19.1462 28.3819 18.9462 28.4183 18.8007 28.491C17.9007 28.9728 17.0007 29.0001 16.1006 28.5183C15.8552 28.3819 15.6551 28.3819 15.4006 28.4455C11.2641 29.4819 7.12754 30.5183 2.98193 31.5457C2.43646 31.682 2.16372 31.4638 2.16372 30.8911C2.16372 29.3728 2.16372 27.8546 2.16372 26.3364C2.16372 25.8363 2.26372 25.7091 2.76374 25.5818C4.00015 25.2727 5.24566 24.9636 6.48207 24.6545C6.60025 24.6272 6.71844 24.5817 6.83662 24.5545C4.782 23.9726 2.73647 23.4726 0.700027 22.9453C0.463654 22.8635 0.236373 22.6726 0 22.5362ZM17.9643 20.7998C21.3554 18.8088 24.9737 17.8906 28.8284 17.9724C28.8284 12.3176 28.8284 6.71743 28.8284 1.09903C27.9829 1.09903 27.1647 1.07176 26.3556 1.10812C22.9645 1.2354 20.228 2.64455 18.1825 5.35374C18.0552 5.51738 17.9825 5.76285 17.9825 5.96285C17.9734 10.7721 17.9734 15.5814 17.9734 20.3816C17.9643 20.5089 17.9643 20.618 17.9643 20.7998ZM6.00023 17.9815C9.89129 17.8906 13.5005 18.8179 16.8734 20.7998C16.8734 20.5998 16.8734 20.4634 16.8734 20.327C16.8734 15.645 16.8643 10.963 16.8825 6.28105C16.8825 5.77194 16.7279 5.3992 16.4279 5.02645C13.7187 1.69906 10.1095 0.771747 6.00023 1.15358C6.00023 6.73561 6.00023 12.3267 6.00023 17.9815ZM3.28194 20.2634C3.39104 20.2998 3.46377 20.3179 3.54559 20.3452C7.11845 21.2362 10.6822 22.1271 14.2551 23.0181C14.946 23.1908 15.637 23.3726 16.3279 23.5453C16.7461 23.6453 16.8825 23.5272 16.8825 23.109C16.8825 22.8635 16.8734 22.6089 16.8825 22.3635C16.8916 22.1726 16.837 22.0453 16.6552 21.9544C15.537 21.3998 14.4551 20.7725 13.3096 20.3089C10.8822 19.327 8.32759 18.9997 5.7184 19.0634C5.04565 19.0815 4.90019 18.9179 4.90019 18.2451C4.90019 13.2177 4.90019 8.1993 4.90019 3.17184C4.90019 3.03547 4.90019 2.8991 4.90019 2.74455C4.35471 2.60818 3.82742 2.4809 3.28194 2.34453C3.28194 8.35385 3.28194 14.2995 3.28194 20.2634ZM31.5558 20.2816C31.5558 14.2995 31.5558 8.33567 31.5558 2.35363C31.0103 2.48999 30.483 2.61727 29.9466 2.75364C29.9466 2.90819 29.9466 3.04456 29.9466 3.18093C29.9466 8.18112 29.9466 13.1813 29.9466 18.1815C29.9466 18.2815 29.9466 18.3815 29.9466 18.4906C29.9284 18.8543 29.7284 19.0543 29.3738 19.0634C28.8829 19.0724 28.4011 19.0634 27.9102 19.0724C24.71 19.1361 21.7099 19.9452 18.928 21.5271C17.9552 22.0726 17.9734 22.0817 17.9643 23.209C17.9643 23.4817 18.0916 23.5453 18.2916 23.5635C18.4007 23.5726 18.5189 23.5363 18.6189 23.509C21.9372 22.6817 25.2555 21.8544 28.5738 21.0271C29.5648 20.7816 30.5648 20.527 31.5558 20.2816ZM1.10004 21.9089C5.68204 23.0544 10.2458 24.1999 14.8006 25.3363C14.9733 25.0181 15.1279 24.7181 15.2915 24.4181C15.1824 24.3817 15.0824 24.3545 14.9915 24.3272C10.9731 23.3272 6.95481 22.318 2.92738 21.318C2.22736 21.1453 2.17281 21.0816 2.17281 20.3452C2.17281 14.4359 2.17281 8.52659 2.17281 2.61727C2.17281 2.4809 2.17281 2.35363 2.17281 2.21726C1.79098 2.21726 1.44551 2.21726 1.09095 2.21726C1.10004 8.78114 1.10004 15.3268 1.10004 21.9089ZM20.0462 25.3363C24.6191 24.1999 29.1829 23.0544 33.7286 21.918C33.7286 15.3178 33.7286 8.76296 33.7286 2.20817C33.3649 2.20817 33.0285 2.20817 32.6649 2.20817C32.6649 2.36272 32.6649 2.49909 32.6649 2.62636C32.6649 8.54477 32.6649 14.4632 32.6649 20.3907C32.6649 21.0452 32.5831 21.1453 31.9649 21.2998C28.8556 22.0726 25.7464 22.8453 22.6372 23.6272C21.6099 23.8817 20.5826 24.1454 19.5462 24.409C19.7189 24.7272 19.8735 25.009 20.0462 25.3363ZM14.9915 27.4182C14.8824 27.0728 14.7915 26.7637 14.6915 26.4364C10.8641 27.3909 7.073 28.3455 3.28194 29.291C3.28194 29.6547 3.28194 29.9729 3.28194 30.3456C7.19118 29.3638 11.0822 28.391 14.9915 27.4182ZM31.5648 29.291C27.7556 28.3364 23.9555 27.3909 20.1462 26.4364C20.0462 26.7818 19.9553 27.0909 19.8553 27.4182C23.7645 28.391 27.6556 29.3638 31.5648 30.3456C31.5648 29.9729 31.5648 29.6456 31.5648 29.291ZM12.2823 25.9182C12.2823 25.8909 12.2823 25.8636 12.2823 25.8273C11.3095 25.5818 10.3277 25.3363 9.3549 25.109C9.23672 25.0818 9.09126 25.1181 8.95489 25.1454C7.79121 25.4363 6.62753 25.7272 5.46385 26.0182C4.73654 26.2 4.00015 26.3909 3.28194 26.5727C3.28194 27.1182 3.28194 27.6273 3.28194 28.1637C6.30024 27.4091 9.29126 26.6636 12.2823 25.9182ZM22.5645 25.8273C22.5645 25.8545 22.5645 25.8818 22.5645 25.9091C25.5555 26.6546 28.5556 27.4091 31.5648 28.1546C31.5648 27.6 31.5648 27.0818 31.5648 26.5546C29.6102 26.0636 27.6647 25.5818 25.7283 25.1C25.6555 25.0818 25.5737 25.0727 25.501 25.0909C24.51 25.3454 23.5373 25.5909 22.5645 25.8273ZM19.0553 26.1364C19.0462 25.2272 18.3007 24.4999 17.4007 24.509C16.5097 24.5181 15.7915 25.2545 15.7915 26.1454C15.7915 27.0455 16.537 27.7819 17.4461 27.7728C18.328 27.7728 19.0553 27.0273 19.0553 26.1364Z" fill="#1F3D73"/>
<path d="M26.6737 4.23539C26.6737 4.56267 26.4283 4.77177 26.0282 4.77177C25.0918 4.78086 24.1827 4.94451 23.3009 5.28088C22.3099 5.65362 21.4372 6.20819 20.6644 6.9264C20.528 7.05368 20.3371 7.20823 20.1826 7.19914C20.0007 7.19005 19.7826 7.05368 19.6644 6.90822C19.5007 6.69912 19.5825 6.43547 19.7826 6.27183C20.4371 5.76272 21.0644 5.21724 21.7735 4.80814C23.0736 4.04447 24.5191 3.699 26.0282 3.699C26.4283 3.68991 26.6737 3.9081 26.6737 4.23539Z" fill="#1F3D73"/>
<path d="M26.6737 7.6176C26.6828 7.94488 26.4374 8.17216 26.0464 8.17216C24.9555 8.18126 23.91 8.39945 22.9009 8.80855C22.0463 9.15402 21.2644 9.63586 20.5735 10.245C20.3371 10.445 20.0917 10.4995 19.828 10.3177C19.5189 10.0995 19.528 9.70859 19.8644 9.41767C21.019 8.40854 22.3463 7.69942 23.8373 7.37213C24.5737 7.20849 25.3373 7.16303 26.0919 7.0903C26.4283 7.07212 26.6646 7.31759 26.6737 7.6176Z" fill="#1F3D73"/>
<path d="M26.6737 11.0448C26.6737 11.3721 26.4283 11.5812 26.0283 11.5902C24.9555 11.6175 23.8918 11.7721 22.9191 12.2085C22.119 12.563 21.3735 13.0448 20.6008 13.463C20.4371 13.554 20.228 13.6721 20.0826 13.6358C19.9098 13.5903 19.6735 13.3994 19.6462 13.2449C19.6098 13.0721 19.728 12.7903 19.8735 12.6721C20.7281 11.9721 21.7008 11.463 22.7463 11.0902C23.81 10.7175 24.91 10.5084 26.0374 10.4993C26.4283 10.4902 26.6737 10.7084 26.6737 11.0448Z" fill="#1F3D73"/>
<path d="M25.7919 13.8995C25.8555 13.8995 25.9283 13.8995 25.9919 13.8995C26.4192 13.8995 26.6647 14.1086 26.6647 14.445C26.6647 14.7723 26.4192 14.945 26.0192 14.9905C25.1737 15.0905 24.3282 15.1632 23.5009 15.345C22.41 15.5814 21.3826 15.9996 20.5099 16.736C20.2372 16.9633 19.928 16.936 19.7189 16.6996C19.5098 16.4541 19.5462 16.136 19.828 15.8905C20.719 15.1359 21.7645 14.6632 22.8736 14.3813C23.8282 14.145 24.801 13.9995 25.7646 13.8086C25.7828 13.845 25.7919 13.8722 25.7919 13.8995Z" fill="#1F3D73"/>
<path d="M9.10943 3.68994C11.3459 3.79904 13.3278 4.62634 14.9915 6.19913C15.2824 6.48096 15.3188 6.79006 15.0915 7.03552C14.8551 7.29008 14.546 7.2719 14.2278 6.98098C12.7005 5.53547 10.8913 4.80817 8.79124 4.78089C8.40031 4.7718 8.15485 4.55361 8.16394 4.21723C8.17303 3.89904 8.4094 3.69903 8.79124 3.68994C8.88215 3.68994 8.97306 3.68994 9.10943 3.68994Z" fill="#1F3D73"/>
<path d="M9.07307 7.09015C11.3004 7.19924 13.2732 7.95382 14.9642 9.40842C15.2733 9.67206 15.3188 9.98117 15.1097 10.2357C14.9006 10.4903 14.5733 10.4903 14.2733 10.2357C12.6914 8.89931 10.864 8.20837 8.79124 8.17201C8.40941 8.16291 8.18213 7.95382 8.17303 7.63562C8.16394 7.30834 8.40941 7.09015 8.80942 7.08105C8.89124 7.09015 8.98216 7.09015 9.07307 7.09015Z" fill="#1F3D73"/>
<path d="M9.00943 10.4992C11.2186 10.6083 13.1823 11.2992 14.9278 12.6174C15.2733 12.872 15.3369 13.1902 15.1278 13.4629C14.9278 13.7175 14.6096 13.7447 14.2824 13.4993C12.655 12.281 10.8186 11.6447 8.79124 11.5901C8.40031 11.581 8.15485 11.3537 8.17303 11.0174C8.19122 10.6992 8.42759 10.5082 8.80942 10.4992C8.88215 10.4901 8.96397 10.4992 9.00943 10.4992Z" fill="#1F3D73"/>
<path d="M9.1367 13.8997C10.9186 14.0088 12.7005 14.4179 14.3187 15.3998C14.5824 15.5543 14.8278 15.7452 15.0551 15.9452C15.3006 16.1634 15.3006 16.4816 15.1006 16.7089C14.9006 16.9362 14.6005 16.9635 14.3369 16.7544C12.7368 15.4907 10.855 15.0907 8.87306 14.9907C8.4094 14.9634 8.16394 14.7907 8.16394 14.4361C8.16394 14.0906 8.4185 13.8906 8.88215 13.8997C8.9367 13.8997 9.00034 13.8997 9.1367 13.8997Z" fill="#1F3D73"/>
<path d="M17.4097 26.691C17.1188 26.6819 16.8734 26.4364 16.8824 26.1364C16.8915 25.8364 17.137 25.6 17.437 25.6091C17.7279 25.6182 17.9734 25.8637 17.9643 26.1637C17.9552 26.4546 17.7007 26.691 17.4097 26.691Z" fill="#1F3D73"/>
</svg>
