<svg width="19" height="27" viewBox="0 0 19 27" fill="none" xmlns="http://www.w3.org/2000/svg">
<path d="M9.5588 0C10.0326 0.730099 10.5064 1.44099 10.9612 2.15187C13.0649 5.41811 15.2064 8.64592 17.2721 11.9314C19.5084 15.4666 19.6032 19.0979 17.3858 22.6523C15.377 25.9185 11.5108 27.5709 7.81525 26.8216C3.74065 25.9762 1.18218 23.4208 0.253548 19.3284C-0.277098 17.0228 0.00717571 14.6981 1.27694 12.6807C3.89226 8.51142 6.60235 4.3806 9.29348 0.249771C9.35033 0.172918 9.42614 0.115279 9.5588 0ZM15.0927 21.9991C15.0927 21.1345 14.2967 20.3659 13.4249 20.4044C12.5342 20.4236 11.9088 21.1152 11.9088 22.0183C11.9088 22.9405 12.6479 23.6706 13.5386 23.6322C14.3346 23.5937 15.0927 22.8252 15.0927 21.9991ZM15.0927 18.5983C15.1874 19.1939 15.5286 19.6358 16.2487 19.5974C16.8931 19.5782 17.2911 19.1363 17.31 18.483C17.329 17.7722 16.8931 17.3303 16.2108 17.3303C15.5286 17.3495 15.1306 17.7722 15.0927 18.5983Z" fill="url(#paint0_linear_1006_1055)"/>
<defs>
<linearGradient id="paint0_linear_1006_1055" x1="5.88472" y1="9.75826" x2="19.5203" y2="43.6576" gradientUnits="userSpaceOnUse">
<stop stop-color="white"/>
<stop offset="1" stop-color="#F8E2EF"/>
</linearGradient>
</defs>
</svg>
