<svg width="220" height="193" viewBox="0 0 220 193" fill="none" xmlns="http://www.w3.org/2000/svg">
<defs>
<!-- <filter id="filter0_d_1_114" x="0" y="0" width="220" height="220" filterUnits="userSpaceOnUse" color-interpolation-filters="sRGB">
<feFlood flood-opacity="0" result="BackgroundImageFix"/>
<feColorMatrix in="SourceAlpha" type="matrix" values="0 0 0 0 0 0 0 0 0 0 0 0 0 0 0 0 0 0 127 0" result="hardAlpha"/>
<feOffset dy="12"/>
<feGaussianBlur stdDeviation="20"/>
<feComposite in2="hardAlpha" operator="out"/>
<feColorMatrix type="matrix" values="0 0 0 0 0 0 0 0 0 0 0 0 0 0 0 0 0 0 0.12 0"/>
<feBlend mode="normal" in2="BackgroundImageFix" result="effect1_dropShadow_1_114"/>
<feBlend mode="normal" in="SourceGraphic" in2="effect1_dropShadow_1_114" result="shape"/>
</filter> -->
<linearGradient id="paint0_linear_1_114" x1="72.561" y1="-4.08332" x2="134.971" y2="15.0076" gradientUnits="userSpaceOnUse">
<stop stop-color="#FFBBE6"/>
<stop offset="1" stop-color="#C43CF3"/>
</linearGradient>
</defs>
<g filter="url(#filter0_d_1_114)">
<rect x="40" y="28" width="140" height="140" rx="70" fill="url(#paint0_linear_1_114)"/>
</g>
<path d="M78.9635 130V113.2H80.9795V120.616H89.6915V113.2H91.7075V130H89.6915V122.272H80.9795V130H78.9635ZM100.557 130.288C99.4366 130.288 98.4286 130.032 97.5326 129.52C96.6366 129.008 95.9246 128.288 95.3966 127.36C94.8846 126.416 94.6286 125.312 94.6286 124.048C94.6286 122.784 94.8926 121.688 95.4206 120.76C95.9486 119.816 96.6606 119.088 97.5566 118.576C98.4686 118.064 99.4846 117.808 100.605 117.808C101.725 117.808 102.733 118.064 103.629 118.576C104.525 119.088 105.229 119.816 105.741 120.76C106.269 121.688 106.533 122.784 106.533 124.048C106.533 125.312 106.269 126.416 105.741 127.36C105.213 128.288 104.493 129.008 103.581 129.52C102.685 130.032 101.677 130.288 100.557 130.288ZM100.557 128.56C101.245 128.56 101.885 128.392 102.477 128.056C103.069 127.72 103.549 127.216 103.917 126.544C104.285 125.872 104.469 125.04 104.469 124.048C104.469 123.056 104.285 122.224 103.917 121.552C103.565 120.88 103.093 120.376 102.501 120.04C101.909 119.704 101.277 119.536 100.605 119.536C99.9166 119.536 99.2766 119.704 98.6846 120.04C98.0926 120.376 97.6126 120.88 97.2446 121.552C96.8766 122.224 96.6926 123.056 96.6926 124.048C96.6926 125.04 96.8766 125.872 97.2446 126.544C97.6126 127.216 98.0846 127.72 98.6606 128.056C99.2526 128.392 99.8846 128.56 100.557 128.56ZM109.336 130V118.096H111.16L111.304 119.824C111.688 119.184 112.2 118.688 112.84 118.336C113.48 117.984 114.2 117.808 115 117.808C115.944 117.808 116.752 118 117.424 118.384C118.112 118.768 118.64 119.352 119.008 120.136C119.424 119.416 119.992 118.848 120.712 118.432C121.448 118.016 122.24 117.808 123.088 117.808C124.512 117.808 125.648 118.24 126.496 119.104C127.344 119.952 127.768 121.264 127.768 123.04V130H125.776V123.256C125.776 122.024 125.528 121.096 125.032 120.472C124.536 119.848 123.824 119.536 122.896 119.536C121.936 119.536 121.136 119.912 120.496 120.664C119.872 121.4 119.56 122.456 119.56 123.832V130H117.544V123.256C117.544 122.024 117.296 121.096 116.8 120.472C116.304 119.848 115.592 119.536 114.664 119.536C113.72 119.536 112.928 119.912 112.288 120.664C111.664 121.4 111.352 122.456 111.352 123.832V130H109.336ZM136.156 130.288C135.02 130.288 134.012 130.032 133.132 129.52C132.252 128.992 131.556 128.264 131.044 127.336C130.548 126.408 130.3 125.312 130.3 124.048C130.3 122.8 130.548 121.712 131.044 120.784C131.54 119.84 132.228 119.112 133.108 118.6C134.004 118.072 135.036 117.808 136.204 117.808C137.356 117.808 138.348 118.072 139.18 118.6C140.028 119.112 140.676 119.792 141.124 120.64C141.572 121.488 141.796 122.4 141.796 123.376C141.796 123.552 141.788 123.728 141.772 123.904C141.772 124.08 141.772 124.28 141.772 124.504H132.292C132.34 125.416 132.548 126.176 132.916 126.784C133.3 127.376 133.772 127.824 134.332 128.128C134.908 128.432 135.516 128.584 136.156 128.584C136.988 128.584 137.684 128.392 138.244 128.008C138.804 127.624 139.212 127.104 139.468 126.448H141.46C141.14 127.552 140.524 128.472 139.612 129.208C138.716 129.928 137.564 130.288 136.156 130.288ZM136.156 119.512C135.196 119.512 134.34 119.808 133.588 120.4C132.852 120.976 132.428 121.824 132.316 122.944H139.804C139.756 121.872 139.388 121.032 138.7 120.424C138.012 119.816 137.164 119.512 136.156 119.512Z" fill="white"/>
<path d="M97.5 66.9711C97.5 66.0175 97.9533 65.1207 98.7212 64.5553L110 56.25L121.279 64.5553C122.047 65.1207 122.5 66.0175 122.5 66.9711V81.25C122.5 82.6307 121.381 83.75 120 83.75H114.75C114.198 83.75 113.75 83.3023 113.75 82.75V74.875C113.75 74.5989 113.526 74.375 113.25 74.375H106.75C106.474 74.375 106.25 74.5989 106.25 74.875V82.75C106.25 83.3023 105.802 83.75 105.25 83.75H100C98.6193 83.75 97.5 82.6307 97.5 81.25V66.9711Z" stroke="white" stroke-width="2" stroke-linecap="round" stroke-linejoin="round"/>
</svg>
