<svg width="33" height="44" viewBox="0 0 33 44" fill="none" xmlns="http://www.w3.org/2000/svg">
<g clip-path="url(#clip0_1_240)">
<path d="M1.61369 44C0.322738 43.3545 0 42.3863 0 41.0953C0 29.7995 0 18.5037 0 7.20782C0 4.84107 0.645477 4.19559 3.1198 4.19559C4.7335 4.19559 6.34719 4.19559 8.06846 4.19559C7.74572 4.94865 7.42298 5.80928 7.10024 6.56234C6.99266 6.66992 6.56235 6.7775 6.34719 6.7775C5.16381 6.7775 3.98044 6.7775 2.79707 6.7775C2.79707 18.2885 2.79707 29.6919 2.79707 41.0953C11.6186 41.0953 20.5477 41.0953 29.4768 41.0953C29.4768 29.6919 29.4768 18.2885 29.4768 6.7775C28.401 6.7775 27.3252 6.66992 26.2494 6.7775C25.4963 6.88508 25.1736 6.56234 24.9584 5.80928C24.7433 5.37897 24.5281 4.84107 24.2054 4.08801C26.2494 4.08801 28.2934 4.08801 30.2298 4.08801C31.4132 4.08801 32.2738 5.05623 32.2738 6.34718C32.2738 18.1809 32.2738 29.9071 32.2738 41.7408C32.2738 42.9242 31.5208 43.4621 30.6601 44C20.978 44 11.2958 44 1.61369 44Z" fill="#1F3D73"/>
<path d="M16.4597 0C17.1052 0.537897 17.7506 0.968215 18.181 1.61369C18.8264 2.36675 19.5795 2.90465 20.6553 3.01222C21.3008 3.1198 22.0538 3.33496 22.3766 3.76528C23.022 4.84108 23.5599 6.13203 23.8827 7.3154C24.0978 8.06846 23.4524 8.28362 22.8069 8.28362C19.7947 8.28362 16.7824 8.28362 13.8778 8.28362C12.4793 8.28362 10.9731 8.28362 9.57461 8.28362C8.49881 8.28362 8.28365 7.8533 8.60639 6.88509C8.82155 6.34719 9.14429 5.80929 9.25187 5.27139C9.68219 3.87286 10.5428 3.1198 12.1565 3.01222C12.802 3.01222 13.555 2.25917 14.2005 1.82885C14.846 1.29095 15.4915 0.753056 16.0294 0.215159C16.0294 0 16.2445 0 16.4597 0ZM16.4597 2.58191C16.3521 2.58191 16.137 2.58191 16.0294 2.58191C15.7066 3.01222 15.2763 3.33496 15.1687 3.76528C15.0612 4.41076 15.5991 4.84108 16.137 4.84108C16.5673 4.7335 17.1052 4.30318 17.1052 3.87286C17.2127 3.44254 16.6749 3.01222 16.4597 2.58191Z" fill="#1F3D73"/>
<path d="M6.56238 14.3081C6.56238 13.6626 6.56238 13.0171 6.56238 12.3716C12.9096 12.3716 19.2568 12.3716 25.7115 12.3716C25.7115 13.0171 25.7115 13.6626 25.7115 14.3081C19.3643 14.3081 13.0171 14.3081 6.56238 14.3081Z" fill="#1F3D73"/>
<path d="M6.56238 19.1492C6.56238 18.5037 6.56238 17.9658 6.56238 17.3203C12.9096 17.3203 19.2568 17.3203 25.7115 17.3203C25.7115 17.8582 25.7115 18.5037 25.7115 19.1492C19.3643 19.1492 13.0171 19.1492 6.56238 19.1492Z" fill="#1F3D73"/>
<path d="M12.1565 24.7433C13.0171 24.7433 13.8778 24.7433 14.846 24.7433C14.846 23.775 14.846 23.022 14.846 22.0538C15.8142 22.0538 16.5673 22.0538 17.5355 22.0538C17.5355 22.9144 17.5355 23.775 17.5355 24.7433C18.5037 24.7433 19.3643 24.7433 20.225 24.7433C20.225 25.6039 20.225 26.4645 20.225 27.4327C19.3643 27.4327 18.5037 27.4327 17.5355 27.4327C17.5355 28.401 17.5355 29.2616 17.5355 30.1222C16.6748 30.1222 15.8142 30.1222 14.846 30.1222C14.846 29.2616 14.846 28.401 14.846 27.4327C13.8778 27.4327 13.0171 27.4327 12.1565 27.4327C12.1565 26.5721 12.1565 25.7115 12.1565 24.7433Z" fill="#1F3D73"/>
</g>
<defs>
<clipPath id="clip0_1_240">
<rect width="32.2738" height="44" fill="white"/>
</clipPath>
</defs>
</svg>
