<svg width="30" height="30" viewBox="0 0 30 30" fill="none" xmlns="http://www.w3.org/2000/svg">
<path d="M2.5 11.9711C2.5 11.0175 2.95332 10.1207 3.72115 9.55533L15 1.25L26.2788 9.55533C27.0467 10.1207 27.5 11.0175 27.5 11.9711V26.25C27.5 27.6307 26.3807 28.75 25 28.75H19.75C19.1977 28.75 18.75 28.3023 18.75 27.75V19.875C18.75 19.5989 18.5261 19.375 18.25 19.375H11.75C11.4739 19.375 11.25 19.5989 11.25 19.875V27.75C11.25 28.3023 10.8023 28.75 10.25 28.75H5C3.61929 28.75 2.5 27.6307 2.5 26.25V11.9711Z" stroke="white" stroke-width="2" stroke-linecap="round" stroke-linejoin="round"/>
</svg>
