<svg width="30" height="28" viewBox="0 0 30 28" fill="none" xmlns="http://www.w3.org/2000/svg">
<path d="M17.3029 21.1768C16.9804 21.578 16.6654 21.9717 16.3505 22.3654C14.9706 24.094 13.5908 25.8188 12.2072 27.5473C11.8398 28.0048 11.2323 28.0348 10.9136 27.5961C10.8161 27.4611 10.7561 27.2811 10.7374 27.1124C10.6099 25.9313 10.4974 24.7502 10.3774 23.569C10.2087 21.8855 10.04 20.2019 9.87123 18.5184C9.83374 18.1509 9.79249 17.7872 9.7625 17.4198C9.75125 17.3035 9.70625 17.2473 9.60127 17.2023C6.60537 15.92 3.60947 14.6339 0.613575 13.3553C0.381102 13.2578 0.178626 13.134 0.0736386 12.8941C-0.117589 12.4704 0.0736386 12.0129 0.531085 11.8179C1.266 11.5067 2.00841 11.2068 2.74707 10.8993C11.0523 7.45345 19.3576 4.01135 27.6629 0.565507C28.0566 0.404276 28.4466 0.239295 28.8403 0.0780643C29.4889 -0.184405 30.0589 0.243045 29.9951 0.940463C29.8301 2.7365 29.6727 4.53629 29.5077 6.33233C29.2865 8.76579 29.0652 11.1955 28.8478 13.629C28.6303 16.0549 28.4166 18.4809 28.1991 20.9069C28.0791 22.2267 27.9629 23.5428 27.8354 24.8626C27.7716 25.5413 27.2317 25.8375 26.6093 25.5488C23.5871 24.124 20.565 22.7029 17.5428 21.2781C17.4603 21.2481 17.3891 21.2143 17.3029 21.1768ZM26.3393 23.6703C26.9767 16.5911 27.6104 9.54945 28.2441 2.51153C28.2291 2.50778 28.2141 2.50403 28.1953 2.49653C23.5571 7.65217 18.9152 12.8078 14.2582 17.9822C14.337 18.0235 14.3932 18.0572 14.4569 18.0872C15.4806 18.5596 16.478 19.0771 17.5091 19.5383C20.19 20.7306 22.826 22.0205 25.4806 23.2728C25.7581 23.4003 26.0318 23.5278 26.3393 23.6703ZM2.84831 12.5753C2.94205 12.6203 3.00204 12.6503 3.06204 12.6766C5.53675 13.7377 8.01145 14.7951 10.4824 15.86C10.6811 15.9462 10.8049 15.9312 10.9699 15.7887C15.5743 11.7842 20.1863 7.78341 24.7945 3.78263C24.9895 3.6139 25.1807 3.44517 25.3719 3.27644C25.3644 3.26519 25.3569 3.25769 25.3494 3.24644C17.8653 6.35108 10.3737 9.45571 2.84831 12.5753ZM11.9785 23.5466C11.9897 23.5466 12.001 23.5466 12.0122 23.5466C12.0272 23.4903 12.046 23.4341 12.0572 23.3778C12.4359 21.6343 12.8146 19.887 13.1971 18.1434C13.2233 18.0197 13.2758 17.8885 13.3583 17.7985C17.1079 13.6252 20.8612 9.45571 24.6145 5.2862C24.937 4.92624 25.2632 4.56629 25.5856 4.20633C25.5219 4.21383 25.4806 4.24382 25.4394 4.27757C24.8957 4.74626 24.352 5.21871 23.8121 5.69115C19.6876 9.27198 15.5631 12.8491 11.4386 16.4261C11.3223 16.5274 11.2698 16.6174 11.2886 16.7711C11.506 18.8971 11.7198 21.0231 11.9335 23.1491C11.9447 23.2803 11.9635 23.4153 11.9785 23.5466ZM13.8908 18.6909C13.4746 20.5956 13.0659 22.4742 12.6609 24.3527C12.6759 24.3602 12.6909 24.3677 12.7059 24.3715C13.8983 22.8829 15.0869 21.3943 16.2905 19.8907C15.4881 19.4895 14.7082 19.0996 13.8908 18.6909Z" fill="#1F3D73"/>
</svg>
