<svg width="23" height="33" viewBox="0 0 23 33" fill="none" xmlns="http://www.w3.org/2000/svg">
<path d="M11.324 31.1147C10.6333 30.1613 8.31849 26.9159 6.04732 23.1615C4.74644 21.0111 3.47163 18.7129 2.52516 16.5947C1.56325 14.4419 1 12.602 1 11.3244C1 5.63259 5.63204 1 11.3235 1C17.0153 1 21.648 5.6327 21.648 11.3244C21.648 12.602 21.0848 14.4419 20.1229 16.5947C19.1765 18.713 17.9017 21.0111 16.6008 23.1615C14.3295 26.9161 12.0147 30.1617 11.324 31.1147ZM16.3799 11.3244C16.3799 8.53505 14.113 6.26804 11.3235 6.26804C8.53547 6.26804 6.26713 8.53485 6.26713 11.3244C6.26713 14.1127 8.53538 16.3808 11.3235 16.3808C14.1131 16.3808 16.3799 14.1125 16.3799 11.3244Z" stroke="#1F3D73" stroke-width="2"/>
</svg>
