<svg width="30" height="35" viewBox="0 0 30 35" fill="none" xmlns="http://www.w3.org/2000/svg">
<path d="M14.9847 31.4456C19.7898 31.6259 24.7189 28.3799 26.3268 23.402C27.6981 19.1604 26.9542 15.257 24.1553 11.7743C23.3589 10.7862 22.3445 10.0349 21.3113 9.30978C21.1686 9.20834 21.0221 9.11442 20.8793 9.00922C20.2707 8.56966 20.1016 7.7206 20.4848 7.0406C20.8492 6.39441 21.5969 6.15021 22.3032 6.45827C23.0959 6.80767 23.7834 7.32237 24.4484 7.86712C27.514 10.3843 29.3249 13.6227 29.8621 17.5412C30.7825 24.3036 27.0256 30.7505 20.6727 33.3916C18.565 34.267 16.3672 34.6051 14.0981 34.4624C9.81517 34.1919 6.29869 32.3735 3.51481 29.1426C1.6326 26.9748 0.516792 24.4314 0.144857 21.5874C-0.471278 16.8612 0.88497 12.7361 4.08211 9.22337C5.04764 8.16392 6.17472 7.2848 7.42577 6.57098C8.04566 6.21783 8.63174 6.26291 9.19528 6.68369C9.45826 6.87905 9.62733 7.14203 9.66865 7.46889C9.74755 8.07751 9.66114 8.62226 9.0976 9.00922C8.51903 9.40746 7.94798 9.8132 7.40323 10.2528C5.56609 11.718 4.25869 13.5776 3.59747 15.828C2.24122 20.4228 3.19923 24.514 6.51659 27.9817C8.3387 29.8864 10.6192 30.9835 13.2265 31.393C13.4256 31.423 13.6247 31.4418 13.8238 31.4493C14.2108 31.4531 14.5977 31.4456 14.9847 31.4456Z" fill="#1F3D73"/>
<path d="M16.4914 9.71922C16.4914 12.4618 16.4877 15.2043 16.4989 17.9431C16.4989 18.2474 16.4276 18.5067 16.2698 18.7546C15.695 19.6563 14.489 19.8329 13.7564 18.8072C13.5761 18.5555 13.4896 18.2775 13.4934 17.9506C13.5084 12.9802 13.5122 8.00982 13.5235 3.03942C13.5235 2.46461 13.5422 1.88604 13.5685 1.31123C13.6024 0.65753 14.1358 0.0977485 14.7858 0.0113393C15.4395 -0.0750699 16.1646 0.341948 16.3712 0.935542C16.4088 1.04449 16.42 1.16847 16.42 1.28494C16.4426 3.05069 16.4689 4.81644 16.4839 6.57844C16.4914 7.62286 16.4839 8.66729 16.4839 9.71547C16.4877 9.71922 16.4914 9.71922 16.4914 9.71922Z" fill="#1F3D73"/>
</svg>
