<svg width="32" height="31" viewBox="0 0 32 31" fill="none" xmlns="http://www.w3.org/2000/svg">
<path d="M8.09205 11.7144C7.69731 11.4924 7.20389 11.3691 6.90784 11.073C4.49008 8.58123 4.49008 4.83123 6.83383 2.41346C9.25159 -0.0536424 13.0509 -0.127656 15.5921 2.33945C20.1809 6.82958 24.6957 11.3691 29.2105 15.9332C31.7022 18.4496 31.6529 22.249 29.2351 24.6668C26.8174 27.0845 23.018 27.0598 20.4769 24.5927C19.8355 23.976 19.2927 23.2358 18.5526 22.5944C17.7384 25.7523 16.1101 28.1207 13.2976 29.5516C11.4226 30.5138 9.44896 30.6618 7.40126 30.3164C3.7006 29.675 0.567379 26.3444 0.1233 22.5697C-0.493477 17.7342 1.60356 14.8477 8.09205 11.7144ZM18.6759 20.374C18.5772 20.4233 18.4539 20.4973 18.3552 20.5467C18.4539 20.7934 18.4539 21.1141 18.6266 21.2868C19.6874 22.3723 20.7236 23.5072 21.9078 24.4447C23.5115 25.6783 25.3371 25.7523 27.1381 24.8641C30.37 23.2605 30.9621 19.2144 28.347 16.55C23.9309 12.1092 19.4654 7.6684 15.0246 3.22761C14.7039 2.90688 14.3585 2.61083 13.9638 2.38879C12.1381 1.27859 10.2878 1.25392 8.48679 2.38879C6.78448 3.47432 6.01968 5.10261 6.14304 7.10096C6.29106 9.42004 7.72198 11.3691 9.62166 11.9612C12.0394 12.7506 14.3832 13.3674 16.3815 15.5138C18.0592 13.7375 19.6381 12.0598 21.3157 10.2835C23.5855 12.6026 25.7812 14.823 27.9769 17.0434C29.8272 18.9431 29.8519 21.6816 28.1003 23.4579C26.324 25.2589 23.4868 25.2589 21.5871 23.3839C20.5756 22.4217 19.6381 21.3855 18.6759 20.374ZM17.2944 20.7194C16.8009 16.1306 13.0016 12.8246 8.70883 13.1454C4.56409 13.4661 0.986787 17.0681 1.18415 20.7194C6.5131 20.7194 11.8667 20.7194 17.2944 20.7194Z" fill="#1F3D73"/>
<path d="M18.676 20.374C19.6381 21.3855 20.5756 22.4217 21.5625 23.3839C23.4868 25.2342 26.2993 25.2589 28.0756 23.4579C29.8273 21.6816 29.8026 18.9184 27.9523 17.0434C25.7812 14.7983 23.5608 12.6026 21.2664 10.2835C19.5888 12.0598 18.0099 13.7375 16.3322 15.5138C14.3585 13.3674 11.9901 12.7506 9.57236 11.9612C7.72203 11.3691 6.29111 9.42004 6.14308 7.10096C6.01973 5.10261 6.78453 3.47432 8.48683 2.38879C10.2878 1.25392 12.1381 1.2786 13.9638 2.38879C14.3339 2.61083 14.7039 2.93156 15.0247 3.22761C19.4655 7.6684 23.9309 12.1092 28.3717 16.5746C30.9868 19.2391 30.3947 23.2852 27.1628 24.8888C25.3618 25.777 23.5115 25.7029 21.9326 24.4694C20.7483 23.5566 19.7122 22.397 18.6513 21.3115C18.4786 21.1388 18.4539 20.8181 18.3799 20.5714C18.4539 20.4973 18.5773 20.448 18.676 20.374Z" fill="white"/>
<path d="M17.2944 20.7194C11.8668 20.7194 6.53781 20.7194 1.18419 20.7194C0.986821 17.0681 4.56412 13.4661 8.70886 13.17C13.0016 12.8493 16.801 16.1552 17.2944 20.7194Z" fill="white"/>
</svg>
