<svg width="24" height="33" viewBox="0 0 24 33" fill="none" xmlns="http://www.w3.org/2000/svg">
<path d="M14.1946 20.8363L14.1194 20.9661L14.1206 20.9668C16.5716 22.3845 19.0252 23.8038 21.4793 25.1141L21.4798 25.1144C21.7371 25.2503 21.9479 25.3694 22.1152 25.4865C22.2825 25.6036 22.3986 25.7133 22.4726 25.8272C22.6107 26.0393 22.6285 26.3068 22.4456 26.7739C22.1813 27.2792 22.0704 27.7516 22.1782 28.2072C22.2863 28.664 22.6069 29.0728 23.1378 29.4656C23.6973 29.8862 23.9045 30.3272 23.8378 30.7106C23.7701 31.0996 23.4088 31.5059 22.6529 31.8254C21.894 32.1462 21.0106 32.359 20.1305 32.359V32.3586L20.119 32.3595C17.2868 32.5771 14.1958 32.5772 11.2266 32.5772H11.2085H11.1903H11.1722H11.154H11.1359H11.1177H11.0996H11.0814H11.0633H11.0451H11.027H11.0088H10.9907H10.9726H10.9544H10.9363H10.9181H10.9H10.8818H10.8637H10.8455H10.8274H10.8092H10.7911H10.7729H10.7548H10.7366H10.7185H10.7004H10.6822H10.6641H10.6459H10.6278H10.6096H10.5915H10.5733H10.5552H10.537H10.5189H10.5007H10.4826H10.4645H10.4463H10.4282H10.41H10.3919H10.3737H10.3556H10.3374H10.3193H10.3011H10.283H10.2648H10.2467H10.2285H10.2104H10.1923H10.1741H10.156H10.1378H10.1197H10.1015H10.0834H10.0652H10.0471H10.0289H10.0108H9.99264H9.9745H9.95635H9.9382H9.92006H9.90191H9.88376H9.86562H9.84747H9.82933H9.81118H9.79303H9.77489H9.75674H9.73859H9.72045H9.7023H9.68415H9.66601H9.64786H9.62971H9.61157H9.59342H9.57528H9.55713H9.53898H9.52084H9.50269H9.48454H9.4664H9.44825H9.4301H9.41196H9.39381H9.37566H9.35752H9.33937H9.32123H9.30308H9.28493H9.26679H9.24864H9.23049H9.21235H9.1942H9.17605H9.15791H9.13976H9.12161H9.10347H9.08532H9.06717H9.04903H9.03088H9.01274H8.99459H8.97644H8.9583H8.94015H8.922H8.90386H8.88571H8.86756H8.84942H8.83127H8.81312H8.79498H8.77683H8.75869H8.74054H8.72239H8.70425H8.6861H8.66795H8.64981H8.63166H8.61351H8.59537H8.57722H8.55907H8.54093H8.52278H8.50463H8.48649H8.46834H8.4502H8.43205H8.4139H8.39576H8.37761H8.35946H8.34132H8.32317H8.30502H8.28688H8.26873H8.25058H8.23244H8.21429H8.19615H8.178H8.15985H8.14171H8.12356H8.10541H8.08727H8.06912H8.05097H8.03283H8.01468H7.99653H7.97839H7.96024H7.94209H7.92395H7.9058H7.88766H7.86951H7.85136H7.83322H7.81507H7.79692H7.77878H7.76063H7.74248H7.72434H7.70619H7.68804H7.6699H7.65175H7.63361H7.61546H7.59731H7.57917H7.56102H7.54287H7.52473H7.50658H7.48843H7.47029H7.45214H7.43399H7.41585H7.3977H7.37956H7.36141H7.34326H7.32512H7.30697H7.28882H7.27068H7.25253H7.23438H7.21624H7.19809H7.17994H7.1618H7.14365H7.1255H7.10736H7.08921H7.07107H7.05292H7.03477H7.01663H6.99848H6.98033H6.96219H6.94404H6.92589H6.90775H6.8896H6.87145H6.85331H6.83516H6.81702H6.79887H6.78072H6.76258H6.74443H6.72628H6.70814H6.68999H6.67184H6.6537H6.63555H6.6174H6.59926H6.58111H6.56296H6.54482H6.52667H6.50853H6.49038H6.47223H6.45409H6.43594H6.41779H6.39965H6.3815H6.36335H6.34521H6.32706H6.30891H6.29077H6.27262H6.25448H6.23633H6.21818H6.20004H6.18189H6.16374H6.1456H6.12745H6.1093H6.09116H6.07301H6.05486H6.03672H6.01857H6.00043H5.98228H5.96413H5.94599H5.92784H5.90969H5.89155H5.8734H5.85525H5.83711H5.81896H5.80081H5.78267H5.76452H5.74638H5.72823H5.71008H5.69194H5.67379H5.65564H5.6375H5.61935H5.6012H5.58306H5.56491H5.54676H5.52862H5.51047H5.49232H5.47418H5.45603H5.43789H5.41974H5.40159H5.38345H5.3653H5.34715H5.32901H5.31086H5.29271H5.27457H5.25642H5.23827H5.22013H5.20198H5.18384H5.16569H5.14754H5.1294H5.11125H5.0931H5.07496H5.05681H5.03866H5.02052H5.00237H4.98422H4.96608H4.94793H4.92978H4.91164H4.89349H4.87535H4.8572H4.83905H4.82091H4.80276H4.78461H4.76647H4.74832H4.73017H4.71203H4.69388H4.67573H4.65759H4.63944H4.62129H4.60315H4.585H4.56686H4.54871H4.53056H4.51242H4.49427H4.47612H4.45798H4.43983H4.42168H4.40354H4.38539H4.36724H4.3491H4.33095H4.31281H4.29466H4.27651H4.25837H4.24022H4.22207H4.20393H4.18578H4.16763H4.14949H4.13134H4.11319H4.09505H4.0769H4.05876H4.04061H4.02246H4.00432H3.98617H3.96802H3.94988H3.93173H3.91358H3.89544H3.87729H3.85914H3.841H3.82285H3.80471H3.78656H3.76841H3.75027H3.73212H3.71397H3.69583H3.67768H3.65953H3.64139H3.62324H3.60509H3.58695H3.5688H3.55065H3.53251H3.51436H3.49622H3.47807H3.45992H3.44178H3.42363H3.40548H3.38734H3.36919H3.35104H3.3329H3.31475H3.2966H3.27846H3.26031H3.24217H3.22402H3.20587H3.18773H3.16958H3.15143H3.13329H3.11514H3.09699H3.07885H3.0607H3.04255H3.02441H3.00626H2.98812H2.96997H2.95182H2.93368H2.91553H2.89738H2.87924H2.86109H2.84294H2.8248H2.80665H2.7885H2.77036H2.75221H2.73406H2.71592H2.69777H2.67963H2.66148H2.64333H2.62519H2.60704H2.58889H2.57075H2.5526H2.53445H2.51631H2.49816H2.48001H2.46187H2.44372H2.42558H2.40743H2.38928H2.37114H2.35299H2.33484H2.3167H2.29855H2.2804H2.26226H2.24411H2.22596H2.20782H2.18967H2.17152H2.15338H2.13523H2.11709H2.09894H2.08079H2.06265H2.0445H2.02635H2.00821H1.99006H1.97191H1.95377H1.93562C1.64464 32.5772 1.3453 32.4785 1.02621 32.3436C0.925816 32.3011 0.82198 32.2544 0.716243 32.2067C0.547346 32.1306 0.373597 32.0523 0.201263 31.9861C0.243027 31.8829 0.281602 31.7744 0.319071 31.6669C0.326669 31.6451 0.334224 31.6234 0.341759 31.6017C0.390972 31.4599 0.439351 31.3206 0.493582 31.1888C0.621906 30.8769 0.764105 30.658 0.961692 30.5745L0.961737 30.5746L0.967057 30.5721C2.16018 30.0117 2.71588 29.2964 2.889 28.4622C3.05844 27.6457 2.8541 26.7409 2.59708 25.8171C2.54143 25.5819 2.48536 25.3469 2.42933 25.112C1.57322 21.524 0.727132 17.9779 1.56543 14.4345L1.56563 14.4345L1.56703 14.4268C1.8205 13.0339 2.45547 11.6353 3.3495 10.3397L3.3495 10.3397L3.35031 10.3385C3.84801 9.60215 4.42623 9.22369 5.10056 9.13501C5.78316 9.04524 6.58961 9.2488 7.54559 9.7337L7.54641 9.73412C10.325 11.1222 11.3421 13.4667 12.1133 15.964C12.146 16.1285 12.1864 16.2924 12.2258 16.4524L12.2262 16.454C12.2667 16.6182 12.3061 16.7784 12.3376 16.938C12.4005 17.2572 12.4289 17.5623 12.3698 17.8618L12.3684 17.8689L12.3677 17.8761C12.3003 18.5603 12.4352 19.1653 12.7428 19.6854C13.0495 20.204 13.523 20.63 14.1209 20.967L14.1946 20.8363ZM14.1946 20.8363C13.0332 20.1817 12.388 19.1999 12.517 17.8908L23.2275 29.3454C22.1951 28.5817 22.0661 27.8181 22.5822 26.8363C22.9694 25.8545 22.5822 25.5272 21.5499 24.9817C19.0981 23.6727 16.6463 22.2545 14.1946 20.8363ZM1.41946 14.3999C0.572621 17.9795 1.42702 21.559 2.28141 25.1386C2.33837 25.3772 2.39533 25.6158 2.45179 25.8545L1.41946 14.3999ZM1.41946 14.3999C1.67754 12.9817 2.32275 11.5636 3.22603 10.2545L1.41946 14.3999ZM10.8217 18.2113L10.7249 18.0967C10.5083 17.8404 10.3046 17.5821 10.1125 17.3384C10.0173 17.2178 9.92504 17.1008 9.83544 16.9894C9.56153 16.6489 9.3112 16.3589 9.0651 16.1508L9.04574 16.1345L9.03283 16.1127C8.99297 16.0453 8.90207 15.9799 8.73922 15.8973C8.68853 15.8716 8.63 15.8439 8.56704 15.814C8.50812 15.7861 8.44532 15.7563 8.38145 15.7247C8.37739 15.7449 8.3731 15.7648 8.36876 15.7843C8.36108 15.8187 8.35343 15.851 8.34605 15.8821C8.33231 15.9402 8.31953 15.9941 8.30944 16.0495C8.2778 16.2234 8.29506 16.307 8.35549 16.3581L8.36142 16.3631L8.3668 16.3687C8.8156 16.8357 9.25305 17.3156 9.69191 17.7971C10.9065 19.1296 12.1318 20.4739 13.6386 21.5884L13.6426 21.5914L13.6425 21.5915C14.6648 22.4017 15.8496 23.106 17.0741 23.787C17.4331 23.9867 17.7958 24.1845 18.1588 24.3825C19.0294 24.8573 19.901 25.3326 20.7226 25.8342C20.9261 25.9492 21.164 26.1214 21.3533 26.3251C21.5398 26.5258 21.6999 26.7795 21.6999 27.0545C21.6999 27.3784 21.5434 27.6528 21.2603 27.7895C20.9831 27.9234 20.6131 27.9122 20.2011 27.7381L20.1976 27.7366L20.1976 27.7366L20.1859 27.7313C16.582 26.0991 12.9513 24.4548 10.0949 21.8215C9.82408 21.5919 9.62274 21.3356 9.44363 21.0878C9.39915 21.0263 9.35641 20.9658 9.3145 20.9066C9.18649 20.7256 9.06626 20.5557 8.92787 20.3985C8.72866 20.232 8.5295 20.1344 8.31834 20.043C8.31544 20.0475 8.31254 20.0521 8.30965 20.0566C8.25882 20.1365 8.20866 20.2154 8.16842 20.3004C8.10835 20.4274 8.1069 20.4982 8.12737 20.5376C8.50986 21.076 9.01773 21.7196 9.52444 22.2557C12.0762 24.5139 15.3207 26.0933 18.5142 27.6478C18.6867 27.7318 18.8591 27.8158 19.0312 27.8997C20.07 28.3391 21.1074 28.8874 22.0146 29.4352L22.0248 29.4413L22.0339 29.449C22.2382 29.6217 22.4434 29.8524 22.5823 30.0872C22.6518 30.2047 22.7076 30.3281 22.7363 30.4495C22.7649 30.5705 22.7688 30.6993 22.7218 30.8186C22.6763 30.9339 22.5902 31.0286 22.4929 31.1071C22.3947 31.1862 22.2756 31.2564 22.1501 31.3201C21.9707 31.4111 21.763 31.4958 21.5674 31.5757C21.4925 31.6063 21.4194 31.6361 21.3502 31.6654L21.3416 31.669L21.3325 31.6716C20.9254 31.7863 20.6498 31.7863 20.264 31.7863H20.2595H20.2255H20.1915H20.1574H20.1234H20.0894H20.0554H20.0213H19.9873H19.9533H19.9193H19.8852H19.8512H19.8172H19.7832H19.7491H19.7151H19.6811H19.6471H19.613H19.579H19.545H19.511H19.4769H19.4429H19.4089H19.3749H19.3408H19.3068H19.2728H19.2388H19.2047H19.1707H19.1367H19.1027H19.0686H19.0346H19.0006H18.9666H18.9325H18.8985H18.8645H18.8305H18.7964H18.7624H18.7284H18.6944H18.6603H18.6263H18.5923H18.5583H18.5242H18.4902H18.4562H18.4222H18.3881H18.3541H18.3201H18.2861H18.252H18.218H18.184H18.15H18.1159H18.0819H18.0479H18.0139H17.9799H17.9458H17.9118H17.8778H17.8438H17.8097H17.7757H17.7417H17.7077H17.6736H17.6396H17.6056H17.5716H17.5375H17.5035H17.4695H17.4355H17.4014H17.3674H17.3334H17.2994H17.2653H17.2313H17.1973H17.1633H17.1292H17.0952H17.0612H17.0272H16.9931H16.9591H16.9251H16.8911H16.857H16.823H16.789H16.755H16.7209H16.6869H16.6529H16.6189H16.5848H16.5508H16.5168H16.4828H16.4487H16.4147H16.3807H16.3467H16.3126H16.2786H16.2446H16.2106H16.1765H16.1425H16.1085H16.0745H16.0405H16.0064H15.9724H15.9384H15.9044H15.8703H15.8363H15.8023H15.7683H15.7342H15.7002H15.6662H15.6322H15.5981H15.5641H15.5301H15.4961H15.462H15.428H15.394H15.36H15.3259H15.2919H15.2579H15.2239H15.1898H15.1558H15.1218H15.0878H15.0537H15.0197H14.9857H14.9517H14.9176H14.8836H14.8496H14.8156H14.7815H14.7475H14.7135H14.6795H14.6454H14.6114H14.5774H14.5434H14.5093H14.4753H14.4413H14.4073H14.3732H14.3392H14.3052H14.2712H14.2371H14.2031H14.1691H14.1351H14.101H14.067H14.033H13.999H13.965H13.9309H13.8969H13.8629H13.8289H13.7948H13.7608H13.7268H13.6928H13.6587H13.6247H13.5907H13.5567H13.5226H13.4886H13.4546H13.4206H13.3865H13.3525H13.3185H13.2845H13.2504H13.2164H13.1824H13.1484H13.1143H13.0803H13.0463H13.0123H12.9782H12.9442H12.9102H12.8762H12.8421H12.8081H12.7741H12.7401H12.706H12.672H12.638H12.604H12.5699H12.5359H12.5019H12.4679H12.4338H12.3998H12.3658H12.3318H12.2977H12.2637H12.2297H12.1957H12.1616H12.1276H12.0936H12.0596H12.0255H11.9915H11.9575H11.9235H11.8895H11.8554H11.8214H11.7874H11.7534H11.7193H11.6853H11.6513H11.6173H11.5832H11.5492H11.5152H11.4812H11.4471H11.4131H11.3791H11.3451H11.311H11.277H11.243H11.209H11.1749H11.1409H11.1069H11.0729H11.0388H11.0048H10.9708H10.9368H10.9027H10.8687H10.8347H10.8007H10.7666H10.7326H10.6986H10.6646H10.6305H10.5965H10.5625H10.5285H10.4944H10.4604H10.4264H10.3924H10.3583H10.3243H10.2903H10.2563H10.2222H10.1882H10.1542H10.1202H10.0861H10.0521H10.0181H9.98407H9.95005H9.91603H9.882H9.84798H9.81395H9.77993H9.7459H9.71188H9.67785H9.64383H9.6098H9.57578H9.54175H9.50773H9.47371H9.43968H9.40566H9.37163H9.33761H9.30358H9.26956H9.23553H9.20151H9.16748H9.13346H9.09943H9.06541H9.03139H8.99736H8.96334H8.92931H8.89529H8.86126H8.82724H8.79321H8.75919H8.72516H8.69114H8.65711H8.62309H8.58907H8.55504H8.52102H8.48699H8.45297H8.41894H8.38492H8.35089H8.31687H8.28284H8.24882H8.2148H8.18077H8.14675H8.11272H8.0787H8.04467H8.01065H7.97662H7.9426H7.90857H7.87455H7.84053H7.8065H7.77248H7.73845H7.70443H7.6704H7.63638H7.60235H7.56833H7.5343H7.50028H7.46625H7.43223H7.39821H7.36418H7.33016H7.29613H7.26211H7.22808H7.19406H7.16003H7.12601H7.09198H7.05796H7.02394H6.98991H6.95589H6.92186H6.88784H6.85381H6.81979H6.78576H6.75174H6.71771H6.68369H6.64966H6.61564H6.58162H6.54759H6.51357H6.47954H6.44552H6.41149H6.37747H6.34344H6.30942H6.27539H6.24137H6.20735H6.17332H6.1393H6.10527H6.07125H6.03722H6.0032H5.96917H5.93515H5.90112H5.8671H5.83307H5.79905H5.76503H5.731H5.69698H5.66295H5.62893H5.5949H5.56088H5.52685H5.49283H5.4588H5.42478H5.39075H5.35673H5.32271H5.28868H5.25466H5.22063H5.18661H5.15258H5.11856H5.08453H5.05051H5.01648H4.98246H4.94844H4.91441H4.88039H4.84636H4.81234H4.77831H4.74429H4.71026H4.67624H4.64221H4.60819H4.57416H4.54014H4.50612H4.47209H4.43807H4.40404H4.37002H4.33599H4.30197H4.26794H4.23392H4.19989H4.16587H4.13184H4.09782H4.0638H4.02977H3.99575H3.96172H3.9277H3.89367H3.85965H3.82562H3.7916H3.75757H3.72355H3.68953H3.6555H3.62148H3.58745H3.55343H3.5194H3.48538H3.45135H3.41733H3.3833H3.34928H3.31526H3.28123H3.24721H3.21318H3.17916H3.14513H3.11111H3.07708H3.04306H3.00903H2.97501H2.94098H2.90696H2.87294H2.83891C2.44356 31.7863 2.04165 31.7856 1.24973 31.5625L0.977902 31.4859L1.19357 31.3036C1.40503 31.1248 1.60062 30.9477 1.792 30.7745C1.89129 30.6846 1.98945 30.5957 2.0881 30.5082C2.37393 30.2545 2.65922 30.0164 2.96777 29.819C3.59176 29.4198 4.3034 29.1923 5.30737 29.3054M10.8217 18.2113L5.2907 29.4545M10.8217 18.2113L10.9363 18.1145M10.8217 18.2113L10.9363 18.1145M5.30737 29.3054C5.30742 29.3054 5.30746 29.3054 5.3075 29.3054L5.2907 29.4545M5.30737 29.3054C5.30729 29.3054 5.30722 29.3054 5.30714 29.3054L5.2907 29.4545M5.30737 29.3054C8.2681 29.6319 11.1009 29.7409 14.0683 29.8499M5.2907 29.4545C8.25865 29.7817 11.0976 29.8908 14.0655 29.9999M14.0683 29.8499H14.0678H14.067H14.0663H14.0655V29.9999M14.0683 29.8499H14.0686H14.0693H14.0701H14.0709H14.0717H14.0724H14.0732H14.074H14.0748H14.0756H14.0764H14.0772H14.078H14.0788H14.0796H14.0804H14.0812H14.082H14.0828H14.0837H14.0845H14.0853H14.0861H14.087H14.0878H14.0886H14.0895H14.0903H14.0912H14.092H14.0929H14.0937H14.0946H14.0954H14.0963H14.0971H14.098H14.0989H14.0997H14.1006H14.1015H14.1024H14.1032H14.1041H14.105H14.1059H14.1068H14.1077H14.1086H14.1094H14.1103H14.1112H14.1121H14.1131H14.114H14.1149H14.1158H14.1167H14.1176H14.1185H14.1194H14.1204H14.1213H14.1222H14.1232H14.1241H14.125H14.126H14.1269H14.1278H14.1288H14.1297H14.1307H14.1316H14.1326H14.1335H14.1345H14.1354H14.1364H14.1373H14.1383H14.1393H14.1402H14.1412H14.1422H14.1431H14.1441H14.1451H14.1461H14.1471H14.148H14.149H14.15H14.151H14.152H14.153H14.154H14.155H14.156H14.157H14.158H14.159H14.16H14.161H14.162H14.163H14.164H14.165H14.166H14.167H14.1681H14.1691H14.1701H14.1711H14.1721H14.1732H14.1742H14.1752H14.1762H14.1773H14.1783H14.1793H14.1804H14.1814H14.1825H14.1835H14.1845H14.1856H14.1866H14.1877H14.1887H14.1898H14.1908H14.1919H14.1929H14.194H14.195H14.1961H14.1972H14.1982H14.1993H14.2003H14.2014H14.2025H14.2035H14.2046H14.2057H14.2067H14.2078H14.2089H14.21H14.211H14.2121H14.2132H14.2143H14.2153H14.2164H14.2175H14.2186H14.2197H14.2207H14.2218H14.2229H14.224H14.2251H14.2262H14.2273H14.2284H14.2295H14.2306H14.2317H14.2327H14.2338H14.2349H14.236H14.2371H14.2382H14.2393H14.2404H14.2415H14.2427H14.2438H14.2449H14.246H14.2471H14.2482H14.2493H14.2504H14.2515H14.2526H14.2537H14.2548H14.256H14.2571H14.2582H14.2593H14.2604H14.2615H14.2627H14.2638H14.2649H14.266H14.2671H14.2682H14.2694H14.2705H14.2716H14.2727H14.2739H14.275H14.2761H14.2772H14.2784H14.2795H14.2806H14.2817H14.2829H14.284H14.2851H14.2862H14.2874H14.2885H14.2896H14.2908H14.2919H14.293H14.2941H14.2953H14.2964H14.2975H14.2987H14.2998H14.3009H14.3021H14.3032H14.3043H14.3055H14.3066H14.3077H14.3089H14.31H14.3111H14.3123H14.3134H14.3145H14.3157H14.3168H14.3179H14.3191H14.3202H14.3213H14.3225H14.3236H14.3247H14.3259H14.327H14.3281H14.3293H14.3304H14.3315H14.3327H14.3338H14.3349H14.3361H14.3372H14.3383H14.3395H14.3406H14.3417H14.3429H14.344H14.3451H14.3463H14.3474H14.3485H14.3497H14.3508H14.3519H14.353H14.3542H14.3553H14.3564H14.3576H14.3587H14.3598H14.361H14.3621H14.3632H14.3643H14.3655H14.3666H14.3677H14.3688H14.37H14.3711H14.3722H14.3733H14.3745H14.3756H14.3767H14.3778H14.3789H14.3801H14.3812H14.3823H14.3834H14.3845H14.3857H14.3868H14.3879H14.389H14.3901H14.3912H14.3923H14.3935H14.3946H14.3957H14.3968H14.3979H14.399H14.4001H14.4012H14.4023H14.4034H14.4045H14.4056H14.4067H14.4078H14.4089H14.41H14.4111H14.4122H14.4133H14.4144H14.4155H14.4166H14.4177H14.4188H14.4199H14.421H14.4221H14.4232H14.4243H14.4254H14.4264H14.4275H14.4286H14.4297H14.4308H14.4319H14.4329H14.434H14.4351H14.4362H14.4372H14.4383H14.4394H14.4405H14.4415H14.4426H14.4437H14.4447H14.4458H14.4469H14.4479H14.449H14.45H14.4511H14.4522H14.4532H14.4543H14.4553H14.4564H14.4574H14.4585H14.4595H14.4606H14.4616H14.4627H14.4637H14.4647H14.4658H14.4668H14.4678H14.4689H14.4699H14.4709H14.472H14.473H14.474H14.4751H14.4761H14.4771H14.4781H14.4791H14.4802H14.4812H14.4822H14.4832H14.4842H14.4852H14.4862H14.4872H14.4882H14.4892H14.4902H14.4912H14.4922H14.4932H14.4942H14.4952H14.4962H14.4972H14.4982H14.4992H14.5001H14.5011H14.5021H14.5031H14.504H14.505H14.506H14.507H14.5079H14.5089H14.5098H14.5108H14.5118H14.5127H14.5137H14.5146H14.5156H14.5165H14.5175H14.5184H14.5194H14.5203H14.5212H14.5222H14.5231H14.524H14.525H14.5259H14.5268H14.5277H14.5287H14.5296H14.5305H14.5314H14.5323H14.5332H14.5341H14.535H14.5359H14.5368H14.5377H14.5386H14.5395H14.5404H14.5413H14.5422H14.5431H14.544H14.5448H14.5457H14.5466H14.5475H14.5483H14.5492H14.5501H14.5509H14.5518H14.5526H14.5535H14.5543H14.5552H14.556H14.5569H14.5577H14.5586H14.5594H14.5602H14.5606M14.0683 29.8499C14.0692 29.85 14.0701 29.85 14.071 29.85L14.0655 29.9999M14.0655 29.9999L14.5606 29.8499M14.5606 29.8499C14.5541 29.8518 14.5475 29.8537 14.541 29.8555L14.5817 29.9999V29.8499H14.5809H14.5802H14.5794H14.5786H14.5779H14.5771H14.5763H14.5755H14.5748H14.574H14.5732H14.5724H14.5716H14.5708H14.57H14.5692H14.5684H14.5676H14.5668H14.566H14.5652H14.5643H14.5635H14.5627H14.5619H14.5611H14.5606ZM1.29041 31.4181L1.3311 31.2737C1.36405 31.283 1.39628 31.2919 1.4278 31.3004C1.38262 31.3396 1.33685 31.3788 1.29041 31.4181ZM1.29041 31.4181L1.38725 31.5327C1.41367 31.5103 1.4399 31.488 1.46595 31.4656C1.4097 31.451 1.35125 31.4353 1.29041 31.4181ZM10.9363 18.1145C10.9814 18.0764 11.0262 18.0566 11.0914 18.029L11.0958 18.0272C11.1591 18.0004 11.2414 17.9657 11.3234 17.8963L11.3864 17.8431M10.9363 18.1145L11.3864 17.8431M11.3864 17.8431L11.3752 17.7615M11.3864 17.8431L11.3752 17.7615M11.3752 17.7615C10.9862 14.911 10.202 12.2346 7.17548 10.4537C6.39299 9.95793 5.70828 9.71537 5.08826 9.82021C4.46085 9.92629 3.9458 10.3792 3.48405 11.1599C2.70173 12.4827 2.17653 13.9211 2.04459 15.2563C1.5342 19.4667 2.65405 23.4619 3.79224 27.5225C3.81344 27.5981 3.83464 27.6738 3.85584 27.7495L3.85792 27.7569M11.3752 17.7615L3.85792 27.7569M3.85792 27.7569L3.86074 27.764M3.85792 27.7569L3.86074 27.764M3.86074 27.764C3.94301 27.9727 4.1698 28.1851 4.42128 28.3411M3.86074 27.764L4.42128 28.3411M4.42128 28.3411C4.67448 28.498 4.98836 28.6201 5.28134 28.6226L4.42128 28.3411ZM15.5752 29.4585C15.6288 29.495 15.6844 29.5305 15.7431 29.5636C15.6801 29.5813 15.6171 29.6019 15.5542 29.6245C15.5011 29.5903 15.4508 29.5553 15.403 29.5208C15.46 29.4988 15.5174 29.4778 15.5752 29.4585ZM10.829 28.9496C10.8297 28.9496 10.8303 28.9497 10.831 28.9497L10.8395 28.7999L10.8268 28.9494C10.8275 28.9495 10.8283 28.9495 10.829 28.9496Z" fill="#1F3D73" stroke="#1F3D73" stroke-width="0.3"/>
<path d="M13.9157 4.68321L13.9155 4.6832V4.69091C13.9155 5.83494 13.3 6.91336 12.3101 7.71044C11.3207 8.50705 9.96669 9.01364 8.51676 9.01364C5.61838 9.01364 3.37845 6.88717 3.37606 4.47658C3.50217 2.06868 5.73804 0.15 8.77484 0.15C11.6826 0.15 14.0391 2.28353 13.9157 4.68321ZM12.7908 5.49405L12.7927 5.48687L12.794 5.47954C12.8596 5.09105 12.8679 4.69212 12.6963 4.38577C12.5157 4.06351 12.1638 3.88723 11.6178 3.88637C9.55043 3.77727 7.48309 3.77727 5.41575 3.88637C4.87256 3.88722 4.51428 4.06226 4.34994 4.39222C4.1935 4.70632 4.24168 5.10996 4.37437 5.50257L4.37419 5.50263L4.37693 5.50957C5.04456 7.20281 6.64952 8.33376 8.65003 8.22272C9.58385 8.22179 10.5138 7.91189 11.2606 7.42079C12.0071 6.92994 12.5849 6.24832 12.7908 5.49405ZM12.1299 3.09545H12.3711L12.2645 2.87914C11.5879 1.50636 10.2349 0.830296 8.51189 0.940911C6.79599 0.942184 5.56992 1.61675 5.02389 2.88618L4.93387 3.09545H5.16168H5.17529H5.1889H5.20251H5.21612H5.22973H5.24334H5.25695H5.27056H5.28417H5.29778H5.31139H5.325H5.33861H5.35222H5.36583H5.37944H5.39305H5.40666H5.42027H5.43388H5.44749H5.4611H5.47471H5.48832H5.50193H5.51554H5.52915H5.54276H5.55637H5.56998H5.58359H5.59719H5.6108H5.62441H5.63802H5.65163H5.66524H5.67885H5.69246H5.70607H5.71968H5.73329H5.7469H5.76051H5.77412H5.78773H5.80134H5.81495H5.82856H5.84217H5.85578H5.86939H5.883H5.89661H5.91022H5.92383H5.93744H5.95105H5.96466H5.97827H5.99188H6.00549H6.0191H6.03271H6.04632H6.05993H6.07354H6.08715H6.10076H6.11437H6.12798H6.14159H6.1552H6.16881H6.18242H6.19603H6.20964H6.22325H6.23686H6.25047H6.26408H6.27769H6.2913H6.30491H6.31852H6.33213H6.34574H6.35935H6.37296H6.38657H6.40018H6.41378H6.42739H6.441H6.45461H6.46822H6.48183H6.49544H6.50905H6.52266H6.53627H6.54988H6.56349H6.5771H6.59071H6.60432H6.61793H6.63154H6.64515H6.65876H6.67237H6.68598H6.69959H6.7132H6.72681H6.74042H6.75403H6.76764H6.78125H6.79486H6.80847H6.82208H6.83569H6.8493H6.86291H6.87652H6.89013H6.90374H6.91735H6.93096H6.94457H6.95818H6.97179H6.9854H6.99901H7.01262H7.02623H7.03984H7.05345H7.06706H7.08067H7.09428H7.10789H7.1215H7.13511H7.14872H7.16233H7.17594H7.18955H7.20316H7.21677H7.23038H7.24399H7.2576H7.2712H7.28481H7.29842H7.31203H7.32564H7.33925H7.35286H7.36647H7.38008H7.39369H7.4073H7.42091H7.43452H7.44813H7.46174H7.47535H7.48896H7.50257H7.51618H7.52979H7.5434H7.55701H7.57062H7.58423H7.59784H7.61145H7.62506H7.63867H7.65228H7.66589H7.6795H7.69311H7.70672H7.72033H7.73394H7.74755H7.76116H7.77477H7.78838H7.80199H7.8156H7.82921H7.84282H7.85643H7.87004H7.88365H7.89726H7.91087H7.92448H7.93809H7.9517H7.96531H7.97892H7.99253H8.00614H8.01975H8.03336H8.04697H8.06058H8.07418H8.08779H8.1014H8.11501H8.12862H8.14223H8.15584H8.16945H8.18306H8.19667H8.21028H8.22389H8.2375H8.25111H8.26472H8.27833H8.29194H8.30555H8.31916H8.33277H8.34638H8.35999H8.3736H8.38721H8.40082H8.41443H8.42804H8.44165H8.45526H8.46887H8.48248H8.49609H8.5097H8.52331H8.53692H8.55053H8.56414H8.57775H8.59136H8.60497H8.61858H8.63219H8.6458H8.65941H8.67302H8.68663H8.70024H8.71385H8.72746H8.74107H8.75468H8.76829H8.7819H8.79551H8.80912H8.82273H8.83634H8.84995H8.86356H8.87717H8.89078H8.90439H8.91799H8.9316H8.94521H8.95882H8.97243H8.98604H8.99965H9.01326H9.02687H9.04048H9.05409H9.0677H9.08131H9.09492H9.10853H9.12214H9.13575H9.14936H9.16297H9.17658H9.19019H9.2038H9.21741H9.23102H9.24463H9.25824H9.27185H9.28546H9.29907H9.31268H9.32629H9.3399H9.35351H9.36712H9.38073H9.39434H9.40795H9.42156H9.43517H9.44878H9.46239H9.476H9.48961H9.50322H9.51683H9.53044H9.54405H9.55766H9.57127H9.58488H9.59849H9.6121H9.62571H9.63932H9.65293H9.66654H9.68015H9.69376H9.70737H9.72098H9.73459H9.74819H9.7618H9.77541H9.78902H9.80263H9.81624H9.82985H9.84346H9.85707H9.87068H9.88429H9.8979H9.91151H9.92512H9.93873H9.95234H9.96595H9.97956H9.99317H10.0068H10.0204H10.034H10.0476H10.0612H10.0748H10.0884H10.1021H10.1157H10.1293H10.1429H10.1565H10.1701H10.1837H10.1973H10.2109H10.2245H10.2381H10.2518H10.2654H10.279H10.2926H10.3062H10.3198H10.3334H10.347H10.3606H10.3742H10.3879H10.4015H10.4151H10.4287H10.4423H10.4559H10.4695H10.4831H10.4967H10.5103H10.524H10.5376H10.5512H10.5648H10.5784H10.592H10.6056H10.6192H10.6328H10.6464H10.6601H10.6737H10.6873H10.7009H10.7145H10.7281H10.7417H10.7553H10.7689H10.7825H10.7962H10.8098H10.8234H10.837H10.8506H10.8642H10.8778H10.8914H10.905H10.9186H10.9323H10.9459H10.9595H10.9731H10.9867H11.0003H11.0139H11.0275H11.0411H11.0547H11.0683H11.082H11.0956H11.1092H11.1228H11.1364H11.15H11.1636H11.1772H11.1908H11.2044H11.2181H11.2317H11.2453H11.2589H11.2725H11.2861H11.2997H11.3133H11.3269H11.3405H11.3542H11.3678H11.3814H11.395H11.4086H11.4222H11.4358H11.4494H11.463H11.4766H11.4903H11.5039H11.5175H11.5311H11.5447H11.5583H11.5719H11.5855H11.5991H11.6127H11.6264H11.64H11.6536H11.6672H11.6808H11.6944H11.708H11.7216H11.7352H11.7488H11.7625H11.7761H11.7897H11.8033H11.8169H11.8305H11.8441H11.8577H11.8713H11.8849H11.8985H11.9122H11.9258H11.9394H11.953H11.9666H11.9802H11.9938H12.0074H12.021H12.0346H12.0483H12.0619H12.0755H12.0891H12.1027H12.1163H12.1299Z" fill="#1F3D73" stroke="#1F3D73" stroke-width="0.3"/>
<path d="M2.83738 31.4866C2.51435 31.4866 2.19349 31.4866 1.64173 31.4218C1.7644 31.3135 1.88319 31.206 1.9988 31.1013C2.09708 31.0124 2.19307 30.9255 2.28721 30.842C2.56996 30.5911 2.84116 30.3656 3.12943 30.1811C3.69905 29.8167 4.3423 29.6079 5.27389 29.7129L5.27387 29.713L5.27969 29.7135C6.76481 29.8226 8.21747 29.9045 9.66867 29.9863L9.66965 29.9864C11.1216 30.0682 12.572 30.1499 14.0545 30.2589L14.0545 30.2593H14.0655C14.0814 30.2593 14.1081 30.2631 14.1541 30.272C14.1623 30.2735 14.1709 30.2752 14.1801 30.277C14.2166 30.2842 14.26 30.2928 14.3027 30.2988C14.3915 30.3113 14.5337 30.323 14.6491 30.246C14.8426 30.1891 15.0342 30.1082 15.2162 30.0312L15.2208 30.0293C15.4161 29.9467 15.6008 29.8689 15.7837 29.8173L16.1311 29.7195L15.8167 29.5423C15.7273 29.4919 15.644 29.4345 15.5609 29.3742C15.5371 29.357 15.5129 29.3392 15.4884 29.3212C15.4298 29.2781 15.3697 29.2339 15.3109 29.1942C15.1432 29.0807 14.9531 28.9794 14.7174 28.9775C13.4315 28.8688 12.1383 28.7596 10.844 28.7593C10.2273 28.7221 9.5994 28.6977 8.9686 28.6731C7.73898 28.6252 6.49839 28.5768 5.30867 28.4331L5.29971 28.432H5.29069C5.07016 28.432 4.80735 28.3368 4.57935 28.1955C4.3534 28.0554 4.19557 27.8914 4.14399 27.7734C4.01705 27.1912 3.88531 26.6098 3.75367 26.0289C2.94598 22.4645 2.14188 18.9159 2.47212 15.2865C2.59817 13.9013 3.22981 12.5066 3.87285 11.3103C4.31215 10.5686 4.76284 10.2304 5.26381 10.1578C5.77638 10.0835 6.38378 10.2795 7.15145 10.712C10.0255 12.4029 10.8048 15.0303 11.1943 17.7138C11.1499 17.7418 11.0958 17.7699 11.0391 17.7939C10.9856 17.8165 10.9381 17.8319 10.9011 17.8408L9.01842 15.6125L9.0103 15.6029L9.00069 15.5948C8.85819 15.4743 8.68368 15.3858 8.52781 15.3068L8.52006 15.3028C8.35526 15.2192 8.21062 15.145 8.0974 15.0493L7.85056 14.8406V15.1639C7.85056 15.2292 7.83734 15.3117 7.81729 15.41C7.81127 15.4396 7.8045 15.4711 7.79753 15.5035C7.78279 15.5721 7.76717 15.6448 7.75587 15.7116C7.73927 15.8099 7.72725 15.9195 7.74378 16.0173C7.75979 16.112 7.80614 16.2101 7.90831 16.2673C8.1317 16.5144 8.35314 16.7619 8.57415 17.0088C10.0002 18.6023 11.4079 20.1754 13.2017 21.5024C14.3064 22.3264 15.5068 23.0393 16.7179 23.7218C17.066 23.918 17.4146 24.1115 17.7622 24.3045C18.6266 24.7842 19.4842 25.2602 20.3104 25.7646L20.3103 25.7647L20.3149 25.7673C20.4906 25.8663 20.7035 26.0451 20.872 26.2394C20.9558 26.336 21.0254 26.4327 21.0732 26.5211C21.1224 26.612 21.1418 26.6816 21.1418 26.7275C21.1418 27.0339 21.0513 27.2059 20.9161 27.2762C20.7722 27.3511 20.5076 27.3509 20.0667 27.1379L20.0667 27.1378L20.0633 27.1363C16.4481 25.4991 12.8606 23.8729 10.0435 21.2769C9.90411 21.1191 9.78328 20.9482 9.65457 20.7663C9.61267 20.707 9.56993 20.6466 9.52545 20.5851C9.34972 20.342 9.15261 20.0906 8.88944 19.8645C8.79742 19.7264 8.64055 19.6351 8.49984 19.569C8.42234 19.5326 8.34172 19.5004 8.26658 19.4712C8.2485 19.4642 8.23087 19.4574 8.21367 19.4508C8.15767 19.4292 8.10625 19.4093 8.05896 19.3893L7.93819 19.3383L7.87145 19.4511L7.86965 19.4542C7.80596 19.5619 7.70527 19.7321 7.63694 19.891C7.60283 19.9703 7.57236 20.0566 7.56157 20.1364C7.55266 20.2022 7.55188 20.3062 7.62323 20.3842C8.00264 21.0257 8.40222 21.7 9.06833 22.1543C11.4904 24.3939 14.5245 25.8561 17.5127 27.2962C17.8907 27.4783 18.2679 27.6601 18.643 27.8431C19.0454 28.0556 19.4483 28.252 19.8412 28.4434C19.9541 28.4985 20.0662 28.5531 20.1773 28.6076C20.6767 28.8528 21.1557 29.0959 21.6014 29.365L21.6014 29.3651L21.6053 29.3673C21.7676 29.4587 21.9438 29.6526 22.064 29.8686C22.1233 29.9751 22.1653 30.0806 22.1857 30.1737C22.2065 30.2689 22.2018 30.3379 22.1846 30.3816C22.1656 30.4299 22.1226 30.4852 22.0465 30.5465C21.9713 30.6072 21.8727 30.6665 21.7563 30.7255C21.5886 30.8106 21.3993 30.8879 21.208 30.966C21.1303 30.9977 21.0523 31.0295 20.9753 31.0621L20.9053 31.0917L20.8878 31.1657C20.8595 31.2851 20.8201 31.3561 20.782 31.3995C20.7451 31.4414 20.7029 31.4649 20.6543 31.4786C20.603 31.493 20.5438 31.4967 20.4746 31.4952C20.4435 31.4944 20.4127 31.4928 20.3801 31.491L20.3696 31.4904C20.3344 31.4885 20.2963 31.4866 20.2595 31.4866H20.2255H20.1914H20.1574H20.1234H20.0894H20.0553H20.0213H19.9873H19.9533H19.9192H19.8852H19.8512H19.8172H19.7831H19.7491H19.7151H19.6811H19.647H19.613H19.579H19.545H19.5109H19.4769H19.4429H19.4089H19.3748H19.3408H19.3068H19.2728H19.2388H19.2047H19.1707H19.1367H19.1027H19.0686H19.0346H19.0006H18.9666H18.9325H18.8985H18.8645H18.8305H18.7964H18.7624H18.7284H18.6944H18.6603H18.6263H18.5923H18.5583H18.5242H18.4902H18.4562H18.4222H18.3881H18.3541H18.3201H18.2861H18.252H18.218H18.184H18.15H18.1159H18.0819H18.0479H18.0139H17.9798H17.9458H17.9118H17.8778H17.8437H17.8097H17.7757H17.7417H17.7076H17.6736H17.6396H17.6056H17.5715H17.5375H17.5035H17.4695H17.4354H17.4014H17.3674H17.3334H17.2994H17.2653H17.2313H17.1973H17.1633H17.1292H17.0952H17.0612H17.0272H16.9931H16.9591H16.9251H16.8911H16.857H16.823H16.789H16.755H16.7209H16.6869H16.6529H16.6189H16.5848H16.5508H16.5168H16.4828H16.4487H16.4147H16.3807H16.3467H16.3126H16.2786H16.2446H16.2106H16.1765H16.1425H16.1085H16.0745H16.0404H16.0064H15.9724H15.9384H15.9043H15.8703H15.8363H15.8023H15.7682H15.7342H15.7002H15.6662H15.6321H15.5981H15.5641H15.5301H15.496H15.462H15.428H15.394H15.3599H15.3259H15.2919H15.2579H15.2239H15.1898H15.1558H15.1218H15.0878H15.0537H15.0197H14.9857H14.9517H14.9176H14.8836H14.8496H14.8156H14.7815H14.7475H14.7135H14.6795H14.6454H14.6114H14.5774H14.5434H14.5093H14.4753H14.4413H14.4073H14.3732H14.3392H14.3052H14.2712H14.2371H14.2031H14.1691H14.1351H14.101H14.067H14.033H13.999H13.9649H13.9309H13.8969H13.8629H13.8288H13.7948H13.7608H13.7268H13.6927H13.6587H13.6247H13.5907H13.5566H13.5226H13.4886H13.4546H13.4205H13.3865H13.3525H13.3185H13.2844H13.2504H13.2164H13.1824H13.1484H13.1143H13.0803H13.0463H13.0123H12.9782H12.9442H12.9102H12.8762H12.8421H12.8081H12.7741H12.7401H12.706H12.672H12.638H12.604H12.5699H12.5359H12.5019H12.4679H12.4338H12.3998H12.3658H12.3318H12.2977H12.2637H12.2297H12.1957H12.1616H12.1276H12.0936H12.0596H12.0255H11.9915H11.9575H11.9235H11.8894H11.8554H11.8214H11.7874H11.7533H11.7193H11.6853H11.6513H11.6172H11.5832H11.5492H11.5152H11.4811H11.4471H11.4131H11.3791H11.345H11.311H11.277H11.243H11.2089H11.1749H11.1409H11.1069H11.0729H11.0388H11.0048H10.9708H10.9368H10.9027H10.8687H10.8347H10.8007H10.7666H10.7326H10.6986H10.6646H10.6305H10.5965H10.5625H10.5285H10.4944H10.4604H10.4264H10.3924H10.3583H10.3243H10.2903H10.2563H10.2222H10.1882H10.1542H10.1202H10.0861H10.0521H10.0181H9.98406H9.95004H9.91602H9.88199H9.84797H9.81394H9.77992H9.74589H9.71187H9.67784H9.64382H9.60979H9.57577H9.54175H9.50772H9.4737H9.43967H9.40565H9.37162H9.3376H9.30357H9.26955H9.23552H9.2015H9.16747H9.13345H9.09943H9.0654H9.03138H8.99735H8.96333H8.9293H8.89528H8.86125H8.82723H8.7932H8.75918H8.72515H8.69113H8.65711H8.62308H8.58906H8.55503H8.52101H8.48698H8.45296H8.41893H8.38491H8.35088H8.31686H8.28284H8.24881H8.21479H8.18076H8.14674H8.11271H8.07869H8.04466H8.01064H7.97661H7.94259H7.90857H7.87454H7.84052H7.80649H7.77247H7.73844H7.70442H7.67039H7.63637H7.60234H7.56832H7.53429H7.50027H7.46625H7.43222H7.3982H7.36417H7.33015H7.29612H7.2621H7.22807H7.19405H7.16002H7.126H7.09197H7.05795H7.02393H6.9899H6.95588H6.92185H6.88783H6.8538H6.81978H6.78575H6.75173H6.7177H6.68368H6.64966H6.61563H6.58161H6.54758H6.51356H6.47953H6.44551H6.41148H6.37746H6.34343H6.30941H6.27538H6.24136H6.20734H6.17331H6.13929H6.10526H6.07124H6.03721H6.00319H5.96916H5.93514H5.90111H5.86709H5.83307H5.79904H5.76502H5.73099H5.69697H5.66294H5.62892H5.59489H5.56087H5.52684H5.49282H5.45879H5.42477H5.39075H5.35672H5.3227H5.28867H5.25465H5.22062H5.1866H5.15257H5.11855H5.08452H5.0505H5.01648H4.98245H4.94843H4.9144H4.88038H4.84635H4.81233H4.7783H4.74428H4.71025H4.67623H4.6422H4.60818H4.57416H4.54013H4.50611H4.47208H4.43806H4.40403H4.37001H4.33598H4.30196H4.26793H4.23391H4.19989H4.16586H4.13184H4.09781H4.06379H4.02976H3.99574H3.96171H3.92769H3.89366H3.85964H3.82561H3.79159H3.75757H3.72354H3.68952H3.65549H3.62147H3.58744H3.55342H3.51939H3.48537H3.45134H3.41732H3.3833H3.34927H3.31525H3.28122H3.2472H3.21317H3.17915H3.14512H3.1111H3.07707H3.04305H3.00902H2.975H2.94098H2.90695H2.87293H2.8389H2.83738Z" fill="white" stroke="#1F3D73" stroke-width="0.3"/>
<path d="M4.51645 5.45451C4.38741 4.79996 4.51645 4.14542 5.54878 4.14542C7.61345 4.03633 9.67811 4.03633 11.7428 4.14542C12.6461 4.14542 12.9041 4.79996 12.7751 5.5636M4.51645 5.45451C5.03262 6.98178 6.71016 8.07269 8.64578 8.07269C10.5814 8.07269 12.2589 6.98178 12.7751 5.5636M4.51645 5.45451L4.66362 5.42549C4.66298 5.42227 4.66236 5.41905 4.66174 5.41584M4.51645 5.45451L4.65856 5.40648C4.65961 5.4096 4.66067 5.41272 4.66174 5.41584M12.7751 5.5636L12.6341 5.5123C12.6326 5.51659 12.631 5.52087 12.6294 5.52515M12.7751 5.5636L12.6272 5.53861C12.628 5.53411 12.6287 5.52963 12.6294 5.52515M12.6294 5.52515C12.1338 6.86568 10.5265 7.92269 8.64578 7.92269C6.76475 7.92269 5.15694 6.86524 4.66174 5.41584M12.6294 5.52515C12.6877 5.16761 12.6513 4.86039 12.5187 4.64742C12.3906 4.44165 12.1546 4.29542 11.7428 4.29542H11.7348L11.7349 4.29521C9.67547 4.1864 7.61609 4.1864 5.5567 4.29521L5.54878 4.29563V4.29542C5.0643 4.29542 4.83505 4.44684 4.72621 4.63087C4.61076 4.82607 4.60151 5.10383 4.66174 5.41584" fill="white" stroke="#1F3D73" stroke-width="0.3"/>
<path d="M11.879 2.79531H11.8713H11.8577H11.8441H11.8305H11.8168H11.8032H11.7896H11.776H11.7624H11.7488H11.7352H11.7216H11.708H11.6944H11.6807H11.6671H11.6535H11.6399H11.6263H11.6127H11.5991H11.5855H11.5719H11.5583H11.5446H11.531H11.5174H11.5038H11.4902H11.4766H11.463H11.4494H11.4358H11.4222H11.4086H11.3949H11.3813H11.3677H11.3541H11.3405H11.3269H11.3133H11.2997H11.2861H11.2725H11.2588H11.2452H11.2316H11.218H11.2044H11.1908H11.1772H11.1636H11.15H11.1364H11.1227H11.1091H11.0955H11.0819H11.0683H11.0547H11.0411H11.0275H11.0139H11.0003H10.9866H10.973H10.9594H10.9458H10.9322H10.9186H10.905H10.8914H10.8778H10.8642H10.8505H10.8369H10.8233H10.8097H10.7961H10.7825H10.7689H10.7553H10.7417H10.7281H10.7144H10.7008H10.6872H10.6736H10.66H10.6464H10.6328H10.6192H10.6056H10.592H10.5784H10.5647H10.5511H10.5375H10.5239H10.5103H10.4967H10.4831H10.4695H10.4559H10.4423H10.4286H10.415H10.4014H10.3878H10.3742H10.3606H10.347H10.3334H10.3198H10.3062H10.2925H10.2789H10.2653H10.2517H10.2381H10.2245H10.2109H10.1973H10.1837H10.1701H10.1564H10.1428H10.1292H10.1156H10.102H10.0884H10.0748H10.0612H10.0476H10.034H10.0203H10.0067H9.99313H9.97952H9.96591H9.9523H9.93869H9.92508H9.91147H9.89786H9.88425H9.87064H9.85703H9.84342H9.82981H9.8162H9.80259H9.78898H9.77537H9.76176H9.74815H9.73454H9.72093H9.70732H9.69371H9.6801H9.66649H9.65288H9.63927H9.62566H9.61205H9.59844H9.58483H9.57122H9.55761H9.544H9.53039H9.51678H9.50317H9.48956H9.47595H9.46234H9.44873H9.43512H9.42151H9.4079H9.39429H9.38068H9.36707H9.35347H9.33986H9.32625H9.31264H9.29903H9.28542H9.27181H9.2582H9.24459H9.23098H9.21737H9.20376H9.19015H9.17654H9.16293H9.14932H9.13571H9.1221H9.10849H9.09488H9.08127H9.06766H9.05405H9.04044H9.02683H9.01322H8.99961H8.986H8.97239H8.95878H8.94517H8.93156H8.91795H8.90434H8.89073H8.87712H8.86351H8.8499H8.83629H8.82268H8.80907H8.79546H8.78185H8.76824H8.75463H8.74102H8.72741H8.7138H8.70019H8.68658H8.67297H8.65936H8.64575H8.63214H8.61853H8.60492H8.59131H8.5777H8.56409H8.55049H8.53688H8.52327H8.50966H8.49605H8.48244H8.46883H8.45522H8.44161H8.428H8.41439H8.40078H8.38717H8.37356H8.35995H8.34634H8.33273H8.31912H8.30551H8.2919H8.27829H8.26468H8.25107H8.23746H8.22385H8.21024H8.19663H8.18302H8.16941H8.1558H8.14219H8.12858H8.11497H8.10136H8.08775H8.07414H8.06053H8.04692H8.03331H8.0197H8.00609H7.99248H7.97887H7.96526H7.95165H7.93804H7.92443H7.91082H7.89721H7.8836H7.86999H7.85638H7.84277H7.82916H7.81555H7.80194H7.78833H7.77472H7.76111H7.7475H7.7339H7.72029H7.70668H7.69307H7.67946H7.66585H7.65224H7.63863H7.62502H7.61141H7.5978H7.58419H7.57058H7.55697H7.54336H7.52975H7.51614H7.50253H7.48892H7.47531H7.4617H7.44809H7.43448H7.42087H7.40726H7.39365H7.38004H7.36643H7.35282H7.33921H7.3256H7.31199H7.29838H7.28477H7.27116H7.25755H7.24394H7.23033H7.21672H7.20311H7.1895H7.17589H7.16228H7.14867H7.13506H7.12145H7.10784H7.09423H7.08062H7.06701H7.0534H7.03979H7.02618H7.01257H6.99896H6.98535H6.97174H6.95813H6.94452H6.93091H6.9173H6.9037H6.89009H6.87648H6.86287H6.84926H6.83565H6.82204H6.80843H6.79482H6.78121H6.7676H6.75399H6.74038H6.72677H6.71316H6.69955H6.68594H6.67233H6.65872H6.64511H6.6315H6.61789H6.60428H6.59067H6.57706H6.56345H6.54984H6.53623H6.52262H6.50901H6.4954H6.48179H6.46818H6.45457H6.44096H6.42735H6.41374H6.40013H6.38652H6.37291H6.3593H6.34569H6.33208H6.31847H6.30486H6.29125H6.27764H6.26403H6.25042H6.23681H6.2232H6.20959H6.19598H6.18237H6.16876H6.15515H6.14154H6.12793H6.11432H6.10071H6.08711H6.0735H6.05989H6.04628H6.03267H6.01906H6.00545H5.99184H5.97823H5.96462H5.95101H5.9374H5.92379H5.91018H5.89657H5.88296H5.86935H5.85574H5.84213H5.82852H5.81491H5.8013H5.78769H5.77408H5.76047H5.74686H5.73325H5.71964H5.70603H5.69242H5.67881H5.6652H5.65159H5.63798H5.62437H5.61076H5.59715H5.58354H5.56993H5.55632H5.54271H5.5291H5.51549H5.50188H5.48827H5.47466H5.46105H5.44744H5.43383H5.42022H5.40661H5.3994C5.92655 1.79715 6.98409 1.24077 8.51671 1.24077V1.24109L8.52645 1.24045C10.0588 1.1408 11.2343 1.69455 11.879 2.79531Z" fill="white" stroke="#1F3D73" stroke-width="0.3"/>
</svg>
