<svg width="17" height="20" viewBox="0 0 17 20" fill="none" xmlns="http://www.w3.org/2000/svg">
<path fill-rule="evenodd" clip-rule="evenodd" d="M0.759477 10.6506C0.559682 9.98463 0.400871 9.30328 0.27792 8.6168C0.154969 7.92008 0.073002 7.21312 0.0320184 6.50615C0.00640369 6.08094 -0.00384221 5.65062 0.00128074 5.22541C0.00640369 4.82582 0.0268955 4.43135 0.0627561 4.03689L0.149846 3.14549L1.04636 3.125C1.85579 3.10963 2.66522 3.01742 3.45415 2.83299C4.21235 2.66393 4.95005 2.40779 5.6519 2.06967C6.05661 1.875 6.45108 1.65471 6.82505 1.40369C7.16317 1.17828 7.49103 0.927254 7.78817 0.645492L8.47464 0L9.16624 0.650615C9.46337 0.927254 9.79124 1.1834 10.1294 1.40881C10.5033 1.65984 10.8978 1.88012 11.3025 2.0748C12.0044 2.41291 12.7421 2.66393 13.5003 2.83811C14.2892 3.01742 15.0986 3.11475 15.908 3.13012L16.8097 3.14549L16.8968 4.03689C16.9326 4.43135 16.9531 4.83094 16.9582 5.22541C16.9634 5.65062 16.9531 6.08094 16.9275 6.50615C16.8865 7.21312 16.8046 7.92008 16.6816 8.6168C16.5638 9.30328 16.3998 9.97951 16.2001 10.6506C15.6263 12.5564 14.7349 14.3289 13.49 15.8863C12.2451 17.4488 10.7134 18.7244 8.98181 19.7131L8.47976 20L7.97771 19.7131C6.24616 18.7193 4.7144 17.4488 3.46952 15.8863C2.22464 14.3289 1.32812 12.5564 0.759477 10.6506ZM8.47464 18.9805L8.53612 18.9447C10.1703 18.0072 11.615 16.8084 12.7882 15.333C13.9562 13.8627 14.8015 12.1926 15.3394 10.3945C15.5289 9.75922 15.6826 9.11373 15.7953 8.46311C15.9132 7.79713 15.99 7.12602 16.031 6.45492C16.0566 6.05021 16.0669 5.64037 16.0617 5.23566C16.0566 4.86168 16.0412 4.48771 16.0054 4.11885L15.9951 4.01127H15.8876C15.0166 3.9959 14.1457 3.89344 13.3005 3.69877C12.4808 3.50922 11.6816 3.23258 10.9234 2.86885C10.4828 2.65369 10.0525 2.41291 9.64267 2.14139C9.26358 1.89037 8.89985 1.60861 8.56685 1.29611L8.48489 1.21926L8.40292 1.29611C8.06993 1.60861 7.7062 1.89037 7.3271 2.14139C6.91726 2.41291 6.48694 2.65881 6.04636 2.86885C5.28817 3.23258 4.48899 3.50922 3.66931 3.69877C2.8189 3.89344 1.95312 3.9959 1.08222 4.01127H0.974641L0.964395 4.11885C0.928535 4.48771 0.913166 4.86168 0.908043 5.23566C0.90292 5.64549 0.913166 6.05021 0.938781 6.45492C0.979764 7.12602 1.05661 7.79713 1.17444 8.46311C1.28714 9.11373 1.44083 9.75922 1.63038 10.3945C2.16829 12.1926 3.01358 13.8627 4.18161 15.333C5.35476 16.8084 6.80456 18.0072 8.43366 18.9447L8.47464 18.9805Z" fill="#219653"/>
<path fill-rule="evenodd" clip-rule="evenodd" d="M15.1806 4.75923C13.2697 4.68751 11.738 4.20595 10.6007 3.6578C9.58632 3.17112 8.87423 2.62808 8.47464 2.27972C8.07505 2.62808 7.36296 3.17112 6.34861 3.6578C5.21132 4.20595 3.67955 4.68751 1.76869 4.75923C1.70209 5.67112 1.66111 7.82788 2.39369 10.2715C3.18775 12.915 4.89369 15.8965 8.47464 17.9969C12.0556 15.8965 13.7615 12.915 14.5556 10.2715C15.2882 7.82788 15.2472 5.67112 15.1806 4.75923Z" fill="#219653"/>
</svg>
