<svg width="32" height="32" viewBox="0 0 32 32" fill="none" xmlns="http://www.w3.org/2000/svg">
<circle cx="16" cy="16" r="5" stroke="#1F3D73" stroke-width="2"/>
<path d="M14.2844 2.61293C15.061 1.31696 16.939 1.31696 17.7156 2.61293L19.2173 5.11902C19.6702 5.87482 20.5644 6.24519 21.419 6.03101L24.253 5.32082C25.7185 4.95357 27.0464 6.28148 26.6792 7.747L25.969 10.581C25.7548 11.4356 26.1252 12.3298 26.881 12.7827L29.3871 14.2844C30.683 15.061 30.683 16.939 29.3871 17.7156L26.881 19.2173C26.1252 19.6702 25.7548 20.5644 25.969 21.419L26.6792 24.253C27.0464 25.7185 25.7185 27.0464 24.253 26.6792L21.419 25.969C20.5644 25.7548 19.6702 26.1252 19.2173 26.881L17.7156 29.3871C16.939 30.683 15.061 30.683 14.2844 29.3871L12.7827 26.881C12.3298 26.1252 11.4356 25.7548 10.581 25.969L7.747 26.6792C6.28148 27.0464 4.95357 25.7185 5.32082 24.253L6.03101 21.419C6.24519 20.5644 5.87482 19.6702 5.11902 19.2173L2.61293 17.7156C1.31696 16.939 1.31696 15.061 2.61293 14.2844L5.11902 12.7827C5.87482 12.3298 6.24519 11.4356 6.03101 10.581L5.32082 7.747C4.95357 6.28148 6.28148 4.95357 7.747 5.32082L10.581 6.03101C11.4356 6.24519 12.3298 5.87482 12.7827 5.11902L14.2844 2.61293Z" stroke="#1F3D73" stroke-width="2"/>
</svg>
