<svg width="33" height="33" viewBox="0 0 33 33" fill="none" xmlns="http://www.w3.org/2000/svg">
<path d="M11.8376 11.0252C15.237 9.58259 18.6221 8.13999 21.7501 6.81166C22.0215 5.46905 22.0643 4.25498 22.5071 3.19803C23.5641 0.684195 26.3207 -0.501306 28.9774 0.198568C31.4198 0.855592 33.1338 3.26944 32.9909 5.85469C32.8338 8.45422 30.777 10.6681 28.1489 10.9681C26.4921 11.1537 24.9781 10.6967 23.7497 9.52546C23.3641 9.15409 23.0927 9.16838 22.6499 9.35406C19.6219 10.6681 16.5796 11.9536 13.523 13.2248C13.0659 13.4105 12.8803 13.5962 12.9231 14.1532C12.9802 14.8816 12.8231 15.6101 12.7946 16.3528C12.7803 16.567 12.8374 16.9098 12.9945 16.9955C14.937 18.181 16.9081 19.3237 18.7221 20.3949C19.8362 19.5808 20.7646 18.7095 21.8644 18.1382C25.3637 16.3385 29.9058 17.5811 32.034 21.3233C33.9765 24.7513 32.9052 29.3505 29.5773 31.4786C26.7206 33.3069 23.7497 33.3497 20.936 31.4644C18.1936 29.6218 17.1081 26.9366 17.6366 23.6658C17.7222 23.1087 17.6366 22.8373 17.1224 22.5517C15.3655 21.5661 13.623 20.5235 11.8947 19.4808C11.4948 19.238 11.2234 19.2094 10.8378 19.5522C8.76672 21.3947 5.79583 21.7375 3.46768 20.4663C1.05383 19.138 -0.331637 16.5099 0.0682912 13.9818C0.511068 11.068 2.49642 8.96841 5.35305 8.43994C7.63835 8.01144 9.56658 8.71132 11.1949 10.3253C11.4091 10.5396 11.6091 10.7681 11.8376 11.0252ZM20.1647 25.0655C20.1647 27.8222 22.4357 30.0932 25.2209 30.1075C27.9918 30.1217 30.2771 27.865 30.2914 25.0941C30.3057 22.2946 28.0204 20.0093 25.2066 20.0236C22.4214 20.0378 20.1504 22.3089 20.1647 25.0655ZM6.48142 18.5096C8.58104 18.5238 10.2665 16.8813 10.2807 14.8102C10.295 12.7249 8.56676 10.9823 6.48142 10.9966C4.42465 10.9966 2.72495 12.7106 2.72495 14.7674C2.72495 16.8527 4.3818 18.4953 6.48142 18.5096ZM30.2914 5.52618C30.3057 3.9836 29.0631 2.7124 27.5062 2.69812C25.9636 2.68383 24.6781 3.92647 24.6639 5.46905C24.6496 7.01162 25.8922 8.28282 27.4491 8.29711C29.0059 8.31139 30.2628 7.08304 30.2914 5.52618Z" fill="#1F3D73"/>
</svg>
