<svg width="30" height="34" viewBox="0 0 30 34" fill="none" xmlns="http://www.w3.org/2000/svg">
<g clip-path="url(#clip0_1_87)">
<path d="M25.9 0C26.3 0.1 26.7 0.2 27.1 0.4C28.3 1 28.9 2 28.9 3.4C28.9 7 28.9 10.6 28.9 14.2C28.9 14.8 28.5 15.1 28.1 15.1C27.6 15.1 27.2 14.7 27.2 14.2C27.2 10.7 27.2 7.2 27.2 3.6C27.2 2.3 26.5 1.7 25.3 1.7C18.1 1.7 10.9 1.7 3.70001 1.7C2.40001 1.7 1.80001 2.4 1.80001 3.6C1.80001 12.4 1.80001 21.2 1.80001 30C1.80001 31.3 2.50001 31.9 3.70001 31.9C6.60001 31.9 9.60001 31.9 12.5 31.9C12.7 31.9 12.9 31.9 13 31.9C13.4 32 13.7 32.3 13.7 32.8C13.7 33.2 13.4 33.5 13 33.6C12.9 33.6 12.8 33.6 12.7 33.6C9.70001 33.6 6.70001 33.6 3.60001 33.6C1.60001 33.6 0.100007 32.2 0.100007 30.1C0.100007 28.9 0.100007 27.7 0.100007 26.6C0.100007 19 0.100007 11.3 0.100007 3.7C7.24941e-06 1.7 1.00001 0.5 2.90001 0H3.00001C10.6 0 18.3 0 25.9 0Z" fill="#1F3D73"/>
<path d="M13.6 8.40002C15.8 8.40002 17.9 8.40002 20.1 8.40002C20.3 8.40002 20.5 8.40002 20.6 8.50002C21 8.60002 21.2 8.90003 21.2 9.30002C21.2 9.70002 21 10 20.6 10.1C20.5 10.1 20.4 10.1 20.2 10.1C15.8 10.1 11.3 10.1 6.90001 10.1C6.20001 10.1 5.70001 9.50002 6.00001 8.90002C6.20001 8.50002 6.50001 8.40002 6.80001 8.40002C7.50001 8.40002 8.20001 8.40002 8.90001 8.40002C10.5 8.40002 12.1 8.40002 13.6 8.40002Z" fill="#1F3D73"/>
<path d="M12.3 15.1C10.5 15.1 8.7 15.1 6.9 15.1C6.2 15.1 5.8 14.6 6 14C6.1 13.6 6.4 13.4 6.9 13.4C8 13.4 9.1 13.4 10.2 13.4C12.7 13.4 15.3 13.4 17.8 13.4C18.2 13.4 18.6 13.7 18.7 14C18.8 14.4 18.6 14.8 18.2 14.9C18 15 17.8 15 17.7 15C15.9 15.1 14.1 15.1 12.3 15.1Z" fill="#1F3D73"/>
<path d="M10.2 20.1C9.1 20.1 8 20.1 6.9 20.1C6.4 20.1 6 19.8 6 19.3C6 18.8 6.4 18.5 6.9 18.5C9.1 18.5 11.3 18.5 13.6 18.5C14.2 18.5 14.5 18.8 14.5 19.3C14.5 19.8 14.1 20.1 13.6 20.1C12.4 20.1 11.3 20.1 10.2 20.1Z" fill="#1F3D73"/>
<path d="M27.8 18.8C28.5 19.5 29.3 20.3 30 21.1C29.7 21.4 29.4 21.6 29.2 21.9C26.1 25 23 28.1 19.8 31.2C19.4 31.6 19 31.8 18.5 31.8C18 31.8 17.5 31.8 17.1 31.8C17.1 31.1 17.1 30.5 17.1 29.9C17.1 29.6 17.3 29.3 17.5 29.2C20.8 25.7 24.3 22.3 27.8 18.8C27.7 18.9 27.7 18.9 27.8 18.8Z" fill="#1F3D73"/>
</g>
<defs>
<clipPath id="clip0_1_87">
<rect width="30" height="33.6" fill="white"/>
</clipPath>
</defs>
</svg>
