<svg width="42" height="34" viewBox="0 0 42 34" fill="none" xmlns="http://www.w3.org/2000/svg">
<mask id="path-1-outside-1_1_138" maskUnits="userSpaceOnUse" x="0" y="0" width="42" height="34" fill="black">
<rect fill="white" width="42" height="34"/>
<path d="M35.4973 21.1135C33.877 20.8435 32.5268 21.6536 31.4467 22.5987C32.5268 21.5186 33.607 20.7084 35.0922 20.7084C35.0922 19.7633 34.9572 18.8181 34.9572 18.008C34.8222 15.9827 34.9572 13.8224 35.3623 11.7971C35.3623 11.662 35.3623 11.527 35.2272 11.392C33.742 8.82659 32.2568 6.39621 30.5015 4.10086C30.0964 3.56077 29.6914 3.15571 29.2863 2.75065C29.0163 2.48061 28.6112 2.21056 28.2062 2.21056C27.6661 2.21056 27.396 2.48061 27.396 2.88567C27.396 4.10086 27.6661 5.31605 28.2062 6.53123C29.0163 8.69157 30.3665 10.7169 31.5817 12.6072C31.7167 12.8772 31.8517 13.0122 31.8517 13.2823C31.3116 12.4722 30.7716 11.7971 30.0964 10.9869C29.1513 9.5017 28.0711 8.01647 27.261 6.39621C26.8559 5.45107 26.5859 4.50592 26.4509 3.42575C26.4509 3.29073 26.3159 3.15571 26.1808 3.02069C25.7758 2.75065 25.3707 2.75065 24.9657 2.88567C24.5606 3.02069 24.2905 3.42575 24.4256 3.83082C24.5606 4.50592 24.6956 5.18103 24.9657 5.85613C25.7758 8.42153 26.8559 10.8519 27.9361 13.2823V13.4173C27.9361 13.4173 27.9361 13.4173 27.8011 13.4173C26.991 12.0671 26.1808 10.7169 25.5057 9.23165C24.9656 7.74642 24.4256 6.26119 23.7505 4.91098C23.2104 5.046 22.8053 5.72111 22.8053 6.53123C22.9403 7.20634 23.0754 8.01647 23.2104 8.69157C23.7505 10.5819 24.4256 12.4722 25.2357 14.2274C25.2357 14.3625 25.2357 14.3625 25.3707 14.4975C24.2905 12.6072 23.2104 10.5819 22.4003 8.55655C21.9952 8.82659 21.8602 9.36668 21.8602 9.77174C21.5901 10.7169 21.7251 11.527 21.9952 12.3371C22.5353 14.4975 23.4804 16.3878 24.4256 18.2781C24.9657 19.3582 24.9657 20.3034 24.4256 21.2485C24.0205 22.0586 23.6154 22.7338 23.3454 23.5439C22.9403 24.7591 23.0754 25.9743 23.4804 27.0544C23.8855 28.6747 24.5606 30.1599 25.3707 31.5101C25.3707 31.6451 25.5057 31.6451 25.5057 31.7802C25.5057 31.7802 25.5057 31.7802 25.5057 31.9152C25.2357 32.0502 24.8306 32.3202 24.5606 32.5903C24.1555 31.7802 23.6154 30.835 23.2104 30.0249C22.5353 28.5397 22.1302 27.0544 21.9952 25.5692C21.8602 24.219 22.2652 23.0038 22.8053 21.7886C23.0754 21.3835 23.2104 20.8435 23.4804 20.4384C23.7505 20.0333 23.6154 19.4932 23.3454 19.0882C22.9403 18.2781 22.4003 17.3329 21.9952 16.5228C21.5901 15.5776 21.3201 14.7675 20.915 13.8224C20.915 13.6873 20.78 13.6873 20.78 13.4173C20.645 13.8224 20.51 14.2274 20.3749 14.6325C19.6998 15.9827 19.1597 17.3329 18.4846 18.6831C18.0796 19.4932 18.0796 20.1684 18.4846 20.8435C18.7547 21.3835 19.1597 22.0586 19.2948 22.5987C19.8349 23.8139 19.8349 25.0291 19.5648 26.3793C19.1597 28.5397 18.3496 30.565 17.1344 32.4553C17.1344 32.4553 17.1344 32.4553 17.1344 32.5903C16.8644 32.3202 16.4593 32.1852 16.1893 31.9152C16.5943 31.2401 16.8644 30.7 17.1344 30.0249C17.8095 28.5397 18.3496 27.0544 18.4846 25.4342C18.6197 24.219 18.2146 23.2738 17.6745 22.1937C17.5395 21.7886 17.2695 21.5186 17.1344 21.1135C16.7294 20.1684 16.5943 19.2232 17.1344 18.4131C17.9446 16.9278 18.7547 15.4426 19.2948 13.8224C19.5648 12.8772 19.8349 11.9321 19.9699 10.9869C19.9699 10.1768 19.8349 9.36668 19.2948 8.55655C18.4846 10.7169 17.4045 12.6072 16.3243 14.4975C16.5943 13.8224 16.9994 13.0122 17.2695 12.3371C17.9446 10.7169 18.4846 8.96161 18.8897 7.20634C19.2948 6.39621 19.2948 5.72111 18.6197 5.046C18.4846 4.91098 18.3496 4.91098 18.2146 4.77596C17.2695 7.88144 15.7842 10.5819 14.029 13.2823C14.299 12.6072 14.7041 12.0671 14.9741 11.392C16.0543 9.09663 16.9994 6.80128 17.5395 4.23588C17.5395 4.10086 17.5395 3.96584 17.5395 3.96584C17.6745 3.42575 17.5395 3.02069 17.1344 2.88567C16.7294 2.75065 15.9192 2.88567 15.6492 3.15571C15.6492 3.15571 15.5142 3.29073 15.5142 3.42575C15.3792 5.046 14.7041 6.53123 13.8939 8.01647C12.8138 9.90676 11.4636 11.662 10.1133 13.4173C10.1133 13.4173 10.1133 13.5523 9.97832 13.5523C10.3834 12.8772 10.9235 12.0671 11.3285 11.392C12.4087 9.63672 13.3538 7.88144 13.8939 5.99115C14.164 5.046 14.299 4.23588 14.434 3.56077C14.434 3.42575 14.434 3.15571 14.434 3.02069C14.434 2.34558 14.029 2.07554 13.3538 2.34558C12.9488 2.48061 12.5437 2.88567 12.1387 3.29073C10.9235 4.91098 9.8433 6.66626 8.62811 8.28651C8.08803 9.23166 7.41292 10.3118 6.87284 11.257C6.73782 11.392 6.73782 11.662 6.73782 11.7971C7.14288 14.4975 7.2779 17.1979 7.00786 20.0333V20.1684C7.00786 20.3034 7.00786 20.4384 7.00786 20.7084C8.62811 20.7084 9.70828 21.6536 10.7884 22.5987C9.57326 21.6536 8.35807 20.8435 6.73782 21.1135C6.73782 20.9785 6.73782 20.8435 6.73782 20.7084C6.87284 17.603 6.73782 14.3625 5.92769 11.392C5.52263 10.8519 5.25259 10.3118 4.98255 9.90676C4.84752 9.77174 4.7125 9.63672 4.57748 9.5017C4.0374 9.09663 3.63234 9.23165 3.49732 9.90676C3.36229 10.5819 3.36229 11.1219 3.36229 11.662C3.22727 14.4975 2.82221 17.1979 2.41715 19.8983C2.28213 20.9785 2.14711 22.0586 2.01208 23.0038C1.87706 24.084 2.14711 25.1641 2.68719 26.1093C3.76736 27.8645 4.84753 29.6198 5.92769 31.3751C5.92769 31.5101 6.06271 31.6451 6.19773 31.7802C5.92769 32.0502 5.52263 32.1852 5.25259 32.4553C4.84752 31.7802 4.44246 31.1051 4.0374 30.565C3.22727 29.2148 2.41715 27.9996 1.74204 26.6494C0.931916 25.2992 0.931916 23.8139 1.06694 22.1937C1.472 19.0882 1.87706 15.9827 2.28213 12.8772C2.14711 11.7971 2.14711 10.8519 2.28213 9.90676C2.41715 9.23165 2.68719 8.55655 3.36229 8.28651C4.0374 8.01647 4.98255 8.15149 5.65765 8.82659C5.92769 9.09663 6.06271 9.36668 6.33276 9.77174C6.33276 9.63672 6.46778 9.63672 6.46778 9.5017C7.81799 7.47638 9.1682 5.31605 10.6534 3.29073C11.1935 2.48061 11.7336 1.8055 12.5437 1.40044C13.6239 0.860354 14.434 0.995375 15.2441 1.8055C15.3792 1.8055 15.5142 1.94052 15.6492 1.8055C16.3243 1.67048 16.8644 1.53546 17.5395 1.8055C18.3496 2.07554 18.7547 2.75065 18.8897 3.56077C18.8897 3.69579 19.0247 3.83082 19.0247 3.96584C20.1049 4.64094 20.51 5.72111 20.3749 7.07132C20.3749 7.47638 20.3749 7.88144 20.645 8.28651C20.78 8.42153 20.78 8.55655 20.915 8.82659C21.1851 8.55655 21.4551 8.15149 21.5901 7.88144C21.5901 7.74642 21.5901 7.6114 21.5901 7.47638C21.4551 6.53124 21.5901 5.58609 22.1302 4.77596C22.4003 4.50592 22.6703 4.23588 22.9403 3.96584C23.0754 3.83082 23.0754 3.69579 23.2104 3.56077C23.3454 2.34558 24.1555 1.53546 25.3707 1.67048C25.7758 1.67048 26.0458 1.8055 26.4509 1.8055C26.5859 1.8055 26.7209 1.8055 26.7209 1.67048C27.396 0.995375 28.0711 0.860354 29.0163 1.1304C29.6914 1.40044 30.2315 1.8055 30.7716 2.48061C31.7167 3.69579 32.6618 4.91098 33.472 6.26119C34.1471 7.34136 34.8222 8.42153 35.4973 9.5017C35.4973 9.63672 35.6323 9.63672 35.7673 9.90676C35.7673 9.63672 35.9024 9.5017 35.9024 9.5017C36.3074 8.82659 36.9825 8.28651 37.7926 8.15149C38.4678 8.01647 39.1429 8.42153 39.5479 9.09663C39.6829 9.5017 39.818 9.90676 39.818 10.3118C40.088 12.7422 40.223 15.3076 40.4931 17.738C40.6281 19.0882 40.7631 20.4384 41.0331 21.7886C41.4382 23.5439 41.1682 25.1641 40.223 26.6494C39.1429 28.4046 38.0627 30.2949 36.8475 32.0502C36.8475 32.0502 36.8475 32.1852 36.7125 32.1852C36.4424 31.9152 36.0374 31.7802 35.7673 31.5101C36.0374 31.2401 36.1724 30.835 36.4424 30.565C37.3876 29.0797 38.3327 27.4595 39.2779 25.8392C39.818 24.8941 40.223 23.9489 39.953 22.8688C39.818 22.1937 39.6829 21.5186 39.6829 20.7084C39.1429 17.3329 38.7378 13.8224 38.6028 10.4468C38.6028 10.1768 38.4677 9.77174 38.3327 9.5017C38.1977 9.23165 37.9277 9.09663 37.6576 9.23165C37.2526 9.36668 36.8475 9.77174 36.7125 10.1768C36.3074 11.1219 36.0374 12.0671 35.9024 13.0122C35.3623 15.5776 35.3623 18.143 35.4973 20.7084C35.4973 20.8435 35.4973 20.9785 35.4973 21.1135Z"/>
</mask>
<path d="M35.4973 21.1135C33.877 20.8435 32.5268 21.6536 31.4467 22.5987C32.5268 21.5186 33.607 20.7084 35.0922 20.7084C35.0922 19.7633 34.9572 18.8181 34.9572 18.008C34.8222 15.9827 34.9572 13.8224 35.3623 11.7971C35.3623 11.662 35.3623 11.527 35.2272 11.392C33.742 8.82659 32.2568 6.39621 30.5015 4.10086C30.0964 3.56077 29.6914 3.15571 29.2863 2.75065C29.0163 2.48061 28.6112 2.21056 28.2062 2.21056C27.6661 2.21056 27.396 2.48061 27.396 2.88567C27.396 4.10086 27.6661 5.31605 28.2062 6.53123C29.0163 8.69157 30.3665 10.7169 31.5817 12.6072C31.7167 12.8772 31.8517 13.0122 31.8517 13.2823C31.3116 12.4722 30.7716 11.7971 30.0964 10.9869C29.1513 9.5017 28.0711 8.01647 27.261 6.39621C26.8559 5.45107 26.5859 4.50592 26.4509 3.42575C26.4509 3.29073 26.3159 3.15571 26.1808 3.02069C25.7758 2.75065 25.3707 2.75065 24.9657 2.88567C24.5606 3.02069 24.2905 3.42575 24.4256 3.83082C24.5606 4.50592 24.6956 5.18103 24.9657 5.85613C25.7758 8.42153 26.8559 10.8519 27.9361 13.2823V13.4173C27.9361 13.4173 27.9361 13.4173 27.8011 13.4173C26.991 12.0671 26.1808 10.7169 25.5057 9.23165C24.9656 7.74642 24.4256 6.26119 23.7505 4.91098C23.2104 5.046 22.8053 5.72111 22.8053 6.53123C22.9403 7.20634 23.0754 8.01647 23.2104 8.69157C23.7505 10.5819 24.4256 12.4722 25.2357 14.2274C25.2357 14.3625 25.2357 14.3625 25.3707 14.4975C24.2905 12.6072 23.2104 10.5819 22.4003 8.55655C21.9952 8.82659 21.8602 9.36668 21.8602 9.77174C21.5901 10.7169 21.7251 11.527 21.9952 12.3371C22.5353 14.4975 23.4804 16.3878 24.4256 18.2781C24.9657 19.3582 24.9657 20.3034 24.4256 21.2485C24.0205 22.0586 23.6154 22.7338 23.3454 23.5439C22.9403 24.7591 23.0754 25.9743 23.4804 27.0544C23.8855 28.6747 24.5606 30.1599 25.3707 31.5101C25.3707 31.6451 25.5057 31.6451 25.5057 31.7802C25.5057 31.7802 25.5057 31.7802 25.5057 31.9152C25.2357 32.0502 24.8306 32.3202 24.5606 32.5903C24.1555 31.7802 23.6154 30.835 23.2104 30.0249C22.5353 28.5397 22.1302 27.0544 21.9952 25.5692C21.8602 24.219 22.2652 23.0038 22.8053 21.7886C23.0754 21.3835 23.2104 20.8435 23.4804 20.4384C23.7505 20.0333 23.6154 19.4932 23.3454 19.0882C22.9403 18.2781 22.4003 17.3329 21.9952 16.5228C21.5901 15.5776 21.3201 14.7675 20.915 13.8224C20.915 13.6873 20.78 13.6873 20.78 13.4173C20.645 13.8224 20.51 14.2274 20.3749 14.6325C19.6998 15.9827 19.1597 17.3329 18.4846 18.6831C18.0796 19.4932 18.0796 20.1684 18.4846 20.8435C18.7547 21.3835 19.1597 22.0586 19.2948 22.5987C19.8349 23.8139 19.8349 25.0291 19.5648 26.3793C19.1597 28.5397 18.3496 30.565 17.1344 32.4553C17.1344 32.4553 17.1344 32.4553 17.1344 32.5903C16.8644 32.3202 16.4593 32.1852 16.1893 31.9152C16.5943 31.2401 16.8644 30.7 17.1344 30.0249C17.8095 28.5397 18.3496 27.0544 18.4846 25.4342C18.6197 24.219 18.2146 23.2738 17.6745 22.1937C17.5395 21.7886 17.2695 21.5186 17.1344 21.1135C16.7294 20.1684 16.5943 19.2232 17.1344 18.4131C17.9446 16.9278 18.7547 15.4426 19.2948 13.8224C19.5648 12.8772 19.8349 11.9321 19.9699 10.9869C19.9699 10.1768 19.8349 9.36668 19.2948 8.55655C18.4846 10.7169 17.4045 12.6072 16.3243 14.4975C16.5943 13.8224 16.9994 13.0122 17.2695 12.3371C17.9446 10.7169 18.4846 8.96161 18.8897 7.20634C19.2948 6.39621 19.2948 5.72111 18.6197 5.046C18.4846 4.91098 18.3496 4.91098 18.2146 4.77596C17.2695 7.88144 15.7842 10.5819 14.029 13.2823C14.299 12.6072 14.7041 12.0671 14.9741 11.392C16.0543 9.09663 16.9994 6.80128 17.5395 4.23588C17.5395 4.10086 17.5395 3.96584 17.5395 3.96584C17.6745 3.42575 17.5395 3.02069 17.1344 2.88567C16.7294 2.75065 15.9192 2.88567 15.6492 3.15571C15.6492 3.15571 15.5142 3.29073 15.5142 3.42575C15.3792 5.046 14.7041 6.53123 13.8939 8.01647C12.8138 9.90676 11.4636 11.662 10.1133 13.4173C10.1133 13.4173 10.1133 13.5523 9.97832 13.5523C10.3834 12.8772 10.9235 12.0671 11.3285 11.392C12.4087 9.63672 13.3538 7.88144 13.8939 5.99115C14.164 5.046 14.299 4.23588 14.434 3.56077C14.434 3.42575 14.434 3.15571 14.434 3.02069C14.434 2.34558 14.029 2.07554 13.3538 2.34558C12.9488 2.48061 12.5437 2.88567 12.1387 3.29073C10.9235 4.91098 9.8433 6.66626 8.62811 8.28651C8.08803 9.23166 7.41292 10.3118 6.87284 11.257C6.73782 11.392 6.73782 11.662 6.73782 11.7971C7.14288 14.4975 7.2779 17.1979 7.00786 20.0333V20.1684C7.00786 20.3034 7.00786 20.4384 7.00786 20.7084C8.62811 20.7084 9.70828 21.6536 10.7884 22.5987C9.57326 21.6536 8.35807 20.8435 6.73782 21.1135C6.73782 20.9785 6.73782 20.8435 6.73782 20.7084C6.87284 17.603 6.73782 14.3625 5.92769 11.392C5.52263 10.8519 5.25259 10.3118 4.98255 9.90676C4.84752 9.77174 4.7125 9.63672 4.57748 9.5017C4.0374 9.09663 3.63234 9.23165 3.49732 9.90676C3.36229 10.5819 3.36229 11.1219 3.36229 11.662C3.22727 14.4975 2.82221 17.1979 2.41715 19.8983C2.28213 20.9785 2.14711 22.0586 2.01208 23.0038C1.87706 24.084 2.14711 25.1641 2.68719 26.1093C3.76736 27.8645 4.84753 29.6198 5.92769 31.3751C5.92769 31.5101 6.06271 31.6451 6.19773 31.7802C5.92769 32.0502 5.52263 32.1852 5.25259 32.4553C4.84752 31.7802 4.44246 31.1051 4.0374 30.565C3.22727 29.2148 2.41715 27.9996 1.74204 26.6494C0.931916 25.2992 0.931916 23.8139 1.06694 22.1937C1.472 19.0882 1.87706 15.9827 2.28213 12.8772C2.14711 11.7971 2.14711 10.8519 2.28213 9.90676C2.41715 9.23165 2.68719 8.55655 3.36229 8.28651C4.0374 8.01647 4.98255 8.15149 5.65765 8.82659C5.92769 9.09663 6.06271 9.36668 6.33276 9.77174C6.33276 9.63672 6.46778 9.63672 6.46778 9.5017C7.81799 7.47638 9.1682 5.31605 10.6534 3.29073C11.1935 2.48061 11.7336 1.8055 12.5437 1.40044C13.6239 0.860354 14.434 0.995375 15.2441 1.8055C15.3792 1.8055 15.5142 1.94052 15.6492 1.8055C16.3243 1.67048 16.8644 1.53546 17.5395 1.8055C18.3496 2.07554 18.7547 2.75065 18.8897 3.56077C18.8897 3.69579 19.0247 3.83082 19.0247 3.96584C20.1049 4.64094 20.51 5.72111 20.3749 7.07132C20.3749 7.47638 20.3749 7.88144 20.645 8.28651C20.78 8.42153 20.78 8.55655 20.915 8.82659C21.1851 8.55655 21.4551 8.15149 21.5901 7.88144C21.5901 7.74642 21.5901 7.6114 21.5901 7.47638C21.4551 6.53124 21.5901 5.58609 22.1302 4.77596C22.4003 4.50592 22.6703 4.23588 22.9403 3.96584C23.0754 3.83082 23.0754 3.69579 23.2104 3.56077C23.3454 2.34558 24.1555 1.53546 25.3707 1.67048C25.7758 1.67048 26.0458 1.8055 26.4509 1.8055C26.5859 1.8055 26.7209 1.8055 26.7209 1.67048C27.396 0.995375 28.0711 0.860354 29.0163 1.1304C29.6914 1.40044 30.2315 1.8055 30.7716 2.48061C31.7167 3.69579 32.6618 4.91098 33.472 6.26119C34.1471 7.34136 34.8222 8.42153 35.4973 9.5017C35.4973 9.63672 35.6323 9.63672 35.7673 9.90676C35.7673 9.63672 35.9024 9.5017 35.9024 9.5017C36.3074 8.82659 36.9825 8.28651 37.7926 8.15149C38.4678 8.01647 39.1429 8.42153 39.5479 9.09663C39.6829 9.5017 39.818 9.90676 39.818 10.3118C40.088 12.7422 40.223 15.3076 40.4931 17.738C40.6281 19.0882 40.7631 20.4384 41.0331 21.7886C41.4382 23.5439 41.1682 25.1641 40.223 26.6494C39.1429 28.4046 38.0627 30.2949 36.8475 32.0502C36.8475 32.0502 36.8475 32.1852 36.7125 32.1852C36.4424 31.9152 36.0374 31.7802 35.7673 31.5101C36.0374 31.2401 36.1724 30.835 36.4424 30.565C37.3876 29.0797 38.3327 27.4595 39.2779 25.8392C39.818 24.8941 40.223 23.9489 39.953 22.8688C39.818 22.1937 39.6829 21.5186 39.6829 20.7084C39.1429 17.3329 38.7378 13.8224 38.6028 10.4468C38.6028 10.1768 38.4677 9.77174 38.3327 9.5017C38.1977 9.23165 37.9277 9.09663 37.6576 9.23165C37.2526 9.36668 36.8475 9.77174 36.7125 10.1768C36.3074 11.1219 36.0374 12.0671 35.9024 13.0122C35.3623 15.5776 35.3623 18.143 35.4973 20.7084C35.4973 20.8435 35.4973 20.9785 35.4973 21.1135Z" fill="#1F3D73"/>
<path d="M35.4973 21.1135C33.877 20.8435 32.5268 21.6536 31.4467 22.5987C32.5268 21.5186 33.607 20.7084 35.0922 20.7084C35.0922 19.7633 34.9572 18.8181 34.9572 18.008C34.8222 15.9827 34.9572 13.8224 35.3623 11.7971C35.3623 11.662 35.3623 11.527 35.2272 11.392C33.742 8.82659 32.2568 6.39621 30.5015 4.10086C30.0964 3.56077 29.6914 3.15571 29.2863 2.75065C29.0163 2.48061 28.6112 2.21056 28.2062 2.21056C27.6661 2.21056 27.396 2.48061 27.396 2.88567C27.396 4.10086 27.6661 5.31605 28.2062 6.53123C29.0163 8.69157 30.3665 10.7169 31.5817 12.6072C31.7167 12.8772 31.8517 13.0122 31.8517 13.2823C31.3116 12.4722 30.7716 11.7971 30.0964 10.9869C29.1513 9.5017 28.0711 8.01647 27.261 6.39621C26.8559 5.45107 26.5859 4.50592 26.4509 3.42575C26.4509 3.29073 26.3159 3.15571 26.1808 3.02069C25.7758 2.75065 25.3707 2.75065 24.9657 2.88567C24.5606 3.02069 24.2905 3.42575 24.4256 3.83082C24.5606 4.50592 24.6956 5.18103 24.9657 5.85613C25.7758 8.42153 26.8559 10.8519 27.9361 13.2823V13.4173C27.9361 13.4173 27.9361 13.4173 27.8011 13.4173C26.991 12.0671 26.1808 10.7169 25.5057 9.23165C24.9656 7.74642 24.4256 6.26119 23.7505 4.91098C23.2104 5.046 22.8053 5.72111 22.8053 6.53123C22.9403 7.20634 23.0754 8.01647 23.2104 8.69157C23.7505 10.5819 24.4256 12.4722 25.2357 14.2274C25.2357 14.3625 25.2357 14.3625 25.3707 14.4975C24.2905 12.6072 23.2104 10.5819 22.4003 8.55655C21.9952 8.82659 21.8602 9.36668 21.8602 9.77174C21.5901 10.7169 21.7251 11.527 21.9952 12.3371C22.5353 14.4975 23.4804 16.3878 24.4256 18.2781C24.9657 19.3582 24.9657 20.3034 24.4256 21.2485C24.0205 22.0586 23.6154 22.7338 23.3454 23.5439C22.9403 24.7591 23.0754 25.9743 23.4804 27.0544C23.8855 28.6747 24.5606 30.1599 25.3707 31.5101C25.3707 31.6451 25.5057 31.6451 25.5057 31.7802C25.5057 31.7802 25.5057 31.7802 25.5057 31.9152C25.2357 32.0502 24.8306 32.3202 24.5606 32.5903C24.1555 31.7802 23.6154 30.835 23.2104 30.0249C22.5353 28.5397 22.1302 27.0544 21.9952 25.5692C21.8602 24.219 22.2652 23.0038 22.8053 21.7886C23.0754 21.3835 23.2104 20.8435 23.4804 20.4384C23.7505 20.0333 23.6154 19.4932 23.3454 19.0882C22.9403 18.2781 22.4003 17.3329 21.9952 16.5228C21.5901 15.5776 21.3201 14.7675 20.915 13.8224C20.915 13.6873 20.78 13.6873 20.78 13.4173C20.645 13.8224 20.51 14.2274 20.3749 14.6325C19.6998 15.9827 19.1597 17.3329 18.4846 18.6831C18.0796 19.4932 18.0796 20.1684 18.4846 20.8435C18.7547 21.3835 19.1597 22.0586 19.2948 22.5987C19.8349 23.8139 19.8349 25.0291 19.5648 26.3793C19.1597 28.5397 18.3496 30.565 17.1344 32.4553C17.1344 32.4553 17.1344 32.4553 17.1344 32.5903C16.8644 32.3202 16.4593 32.1852 16.1893 31.9152C16.5943 31.2401 16.8644 30.7 17.1344 30.0249C17.8095 28.5397 18.3496 27.0544 18.4846 25.4342C18.6197 24.219 18.2146 23.2738 17.6745 22.1937C17.5395 21.7886 17.2695 21.5186 17.1344 21.1135C16.7294 20.1684 16.5943 19.2232 17.1344 18.4131C17.9446 16.9278 18.7547 15.4426 19.2948 13.8224C19.5648 12.8772 19.8349 11.9321 19.9699 10.9869C19.9699 10.1768 19.8349 9.36668 19.2948 8.55655C18.4846 10.7169 17.4045 12.6072 16.3243 14.4975C16.5943 13.8224 16.9994 13.0122 17.2695 12.3371C17.9446 10.7169 18.4846 8.96161 18.8897 7.20634C19.2948 6.39621 19.2948 5.72111 18.6197 5.046C18.4846 4.91098 18.3496 4.91098 18.2146 4.77596C17.2695 7.88144 15.7842 10.5819 14.029 13.2823C14.299 12.6072 14.7041 12.0671 14.9741 11.392C16.0543 9.09663 16.9994 6.80128 17.5395 4.23588C17.5395 4.10086 17.5395 3.96584 17.5395 3.96584C17.6745 3.42575 17.5395 3.02069 17.1344 2.88567C16.7294 2.75065 15.9192 2.88567 15.6492 3.15571C15.6492 3.15571 15.5142 3.29073 15.5142 3.42575C15.3792 5.046 14.7041 6.53123 13.8939 8.01647C12.8138 9.90676 11.4636 11.662 10.1133 13.4173C10.1133 13.4173 10.1133 13.5523 9.97832 13.5523C10.3834 12.8772 10.9235 12.0671 11.3285 11.392C12.4087 9.63672 13.3538 7.88144 13.8939 5.99115C14.164 5.046 14.299 4.23588 14.434 3.56077C14.434 3.42575 14.434 3.15571 14.434 3.02069C14.434 2.34558 14.029 2.07554 13.3538 2.34558C12.9488 2.48061 12.5437 2.88567 12.1387 3.29073C10.9235 4.91098 9.8433 6.66626 8.62811 8.28651C8.08803 9.23166 7.41292 10.3118 6.87284 11.257C6.73782 11.392 6.73782 11.662 6.73782 11.7971C7.14288 14.4975 7.2779 17.1979 7.00786 20.0333V20.1684C7.00786 20.3034 7.00786 20.4384 7.00786 20.7084C8.62811 20.7084 9.70828 21.6536 10.7884 22.5987C9.57326 21.6536 8.35807 20.8435 6.73782 21.1135C6.73782 20.9785 6.73782 20.8435 6.73782 20.7084C6.87284 17.603 6.73782 14.3625 5.92769 11.392C5.52263 10.8519 5.25259 10.3118 4.98255 9.90676C4.84752 9.77174 4.7125 9.63672 4.57748 9.5017C4.0374 9.09663 3.63234 9.23165 3.49732 9.90676C3.36229 10.5819 3.36229 11.1219 3.36229 11.662C3.22727 14.4975 2.82221 17.1979 2.41715 19.8983C2.28213 20.9785 2.14711 22.0586 2.01208 23.0038C1.87706 24.084 2.14711 25.1641 2.68719 26.1093C3.76736 27.8645 4.84753 29.6198 5.92769 31.3751C5.92769 31.5101 6.06271 31.6451 6.19773 31.7802C5.92769 32.0502 5.52263 32.1852 5.25259 32.4553C4.84752 31.7802 4.44246 31.1051 4.0374 30.565C3.22727 29.2148 2.41715 27.9996 1.74204 26.6494C0.931916 25.2992 0.931916 23.8139 1.06694 22.1937C1.472 19.0882 1.87706 15.9827 2.28213 12.8772C2.14711 11.7971 2.14711 10.8519 2.28213 9.90676C2.41715 9.23165 2.68719 8.55655 3.36229 8.28651C4.0374 8.01647 4.98255 8.15149 5.65765 8.82659C5.92769 9.09663 6.06271 9.36668 6.33276 9.77174C6.33276 9.63672 6.46778 9.63672 6.46778 9.5017C7.81799 7.47638 9.1682 5.31605 10.6534 3.29073C11.1935 2.48061 11.7336 1.8055 12.5437 1.40044C13.6239 0.860354 14.434 0.995375 15.2441 1.8055C15.3792 1.8055 15.5142 1.94052 15.6492 1.8055C16.3243 1.67048 16.8644 1.53546 17.5395 1.8055C18.3496 2.07554 18.7547 2.75065 18.8897 3.56077C18.8897 3.69579 19.0247 3.83082 19.0247 3.96584C20.1049 4.64094 20.51 5.72111 20.3749 7.07132C20.3749 7.47638 20.3749 7.88144 20.645 8.28651C20.78 8.42153 20.78 8.55655 20.915 8.82659C21.1851 8.55655 21.4551 8.15149 21.5901 7.88144C21.5901 7.74642 21.5901 7.6114 21.5901 7.47638C21.4551 6.53124 21.5901 5.58609 22.1302 4.77596C22.4003 4.50592 22.6703 4.23588 22.9403 3.96584C23.0754 3.83082 23.0754 3.69579 23.2104 3.56077C23.3454 2.34558 24.1555 1.53546 25.3707 1.67048C25.7758 1.67048 26.0458 1.8055 26.4509 1.8055C26.5859 1.8055 26.7209 1.8055 26.7209 1.67048C27.396 0.995375 28.0711 0.860354 29.0163 1.1304C29.6914 1.40044 30.2315 1.8055 30.7716 2.48061C31.7167 3.69579 32.6618 4.91098 33.472 6.26119C34.1471 7.34136 34.8222 8.42153 35.4973 9.5017C35.4973 9.63672 35.6323 9.63672 35.7673 9.90676C35.7673 9.63672 35.9024 9.5017 35.9024 9.5017C36.3074 8.82659 36.9825 8.28651 37.7926 8.15149C38.4678 8.01647 39.1429 8.42153 39.5479 9.09663C39.6829 9.5017 39.818 9.90676 39.818 10.3118C40.088 12.7422 40.223 15.3076 40.4931 17.738C40.6281 19.0882 40.7631 20.4384 41.0331 21.7886C41.4382 23.5439 41.1682 25.1641 40.223 26.6494C39.1429 28.4046 38.0627 30.2949 36.8475 32.0502C36.8475 32.0502 36.8475 32.1852 36.7125 32.1852C36.4424 31.9152 36.0374 31.7802 35.7673 31.5101C36.0374 31.2401 36.1724 30.835 36.4424 30.565C37.3876 29.0797 38.3327 27.4595 39.2779 25.8392C39.818 24.8941 40.223 23.9489 39.953 22.8688C39.818 22.1937 39.6829 21.5186 39.6829 20.7084C39.1429 17.3329 38.7378 13.8224 38.6028 10.4468C38.6028 10.1768 38.4677 9.77174 38.3327 9.5017C38.1977 9.23165 37.9277 9.09663 37.6576 9.23165C37.2526 9.36668 36.8475 9.77174 36.7125 10.1768C36.3074 11.1219 36.0374 12.0671 35.9024 13.0122C35.3623 15.5776 35.3623 18.143 35.4973 20.7084C35.4973 20.8435 35.4973 20.9785 35.4973 21.1135Z" stroke="#1F3D73" stroke-width="0.6" mask="url(#path-1-outside-1_1_138)"/>
</svg>
