<svg width="44" height="44" viewBox="0 0 44 44" fill="none" xmlns="http://www.w3.org/2000/svg">
<g clip-path="url(#clip0_1_232)">
<path d="M20.5333 17.16C20.5333 15.1067 20.5333 13.2 20.5333 11.1467C17.4533 11.5867 15.1066 12.9067 13.3466 15.2533C10.2666 19.2133 10.2666 24.64 13.3466 28.6C16.28 32.4133 21.4133 33.88 26.1066 32.12C30.6533 30.36 33.44 25.8133 33 20.9733C32.8533 18.7733 31.9733 16.8667 30.6533 15.1067C30.0666 14.3733 29.7733 13.4933 30.6533 12.76C31.5333 12.0267 32.2666 12.4667 32.8533 13.3467C36.08 17.6 36.8133 22.1467 34.76 26.9867C32.8533 31.8267 29.1866 34.76 23.9066 35.4933C15.5466 36.6667 8.50662 30.6533 8.06662 22.2933C7.62662 15.5467 12.9066 9.24 19.6533 8.06667C19.9466 8.06667 20.0933 7.92 20.3866 7.92C20.3866 6.16 20.3866 4.54667 20.3866 2.49333C18.3333 3.08 16.4266 3.37333 14.6666 4.10667C6.74662 7.33333 2.05329 15.4 2.93329 24.0533C3.81329 32.2667 10.4133 39.16 18.7733 40.6267C29.48 42.3867 39.7466 34.9067 40.92 24.2C41.5066 19.2133 40.3333 14.6667 37.2533 10.56C37.1066 10.2667 36.8133 9.97333 36.6666 9.68C36.2266 8.94667 36.08 8.21333 36.8133 7.62667C37.5466 7.04 38.28 7.18667 38.8666 7.92C41.2133 10.56 42.68 13.64 43.4133 17.16C46.2 29.48 38.28 41.36 25.96 43.7067C13.7866 45.9067 1.90662 37.2533 0.146623 25.08C-1.32004 13.64 6.15996 2.64 17.8933 0.293333C19.0666 0.146667 20.3866 0 21.56 0C23.0266 0 23.4666 0.44 23.4666 1.90667C23.4666 6.6 23.4666 11.44 23.4666 16.1333C23.4666 16.72 23.6133 17.16 24.2 17.6C26.2533 18.6267 27.28 21.12 26.84 23.1733C26.2533 25.52 24.2 26.9867 21.8533 26.84C19.6533 26.84 17.6 25.2267 17.16 23.0267C16.5733 20.68 17.7466 18.48 19.9466 17.3067C20.0933 17.3067 20.24 17.3067 20.5333 17.16ZM23.9066 22C23.9066 20.68 23.32 20.0933 22 19.9467C20.68 19.9467 19.9466 20.68 19.9466 21.8533C19.9466 23.0267 20.8266 23.9067 22 23.9067C23.1733 24.0533 23.9066 23.1733 23.9066 22Z" fill="#1F3D73"/>
</g>
<defs>
<clipPath id="clip0_1_232">
<rect width="44" height="44" fill="white"/>
</clipPath>
</defs>
</svg>
